<?xml version="1.0" encoding="UTF-8"?>
<svg xmlns="http://www.w3.org/2000/svg" xmlns:xlink="http://www.w3.org/1999/xlink" width="371pt" height="112pt" viewBox="0 0 371 112" version="1.1">
<g id="surface1">
<path style=" stroke:none;fill-rule:nonzero;fill:rgb(86.27451%,9.803922%,25.490196%);fill-opacity:1;" d="M 112.367188 69.269531 L 112.367188 77.582031 L 102.441406 77.582031 L 102.441406 58.375 C 102.515625 54.585938 105.589844 51.550781 109.367188 51.523438 L 133.789062 51.523438 C 135.597656 51.496094 137.335938 52.222656 138.589844 53.53125 C 139.902344 54.796875 140.636719 56.546875 140.621094 58.375 L 140.621094 77.582031 L 130.773438 77.582031 L 130.773438 69.269531 L 112.367188 69.269531 M 118.238281 63.730469 L 130.773438 63.730469 L 130.773438 58.015625 L 112.367188 58.015625 L 112.367188 63.730469 Z M 118.238281 63.730469 "/>
<path style=" stroke:none;fill-rule:nonzero;fill:rgb(86.27451%,9.803922%,25.490196%);fill-opacity:1;" d="M 175.511719 58.015625 L 147.070312 58.015625 L 147.070312 51.523438 L 178.523438 51.523438 C 180.332031 51.5 182.070312 52.226562 183.324219 53.53125 C 184.640625 54.796875 185.375 56.546875 185.359375 58.375 L 185.359375 70.734375 C 185.34375 74.507812 182.292969 77.566406 178.523438 77.582031 L 147.023438 77.582031 L 147.023438 62.171875 L 156.902344 62.171875 L 156.902344 71.105469 L 175.542969 71.105469 L 175.542969 58.015625 "/>
<path style=" stroke:none;fill-rule:nonzero;fill:rgb(86.27451%,9.803922%,25.490196%);fill-opacity:1;" d="M 201.359375 77.582031 L 191.433594 77.582031 L 191.433594 58.375 C 191.460938 56.550781 192.203125 54.8125 193.5 53.53125 C 194.765625 52.21875 196.523438 51.492188 198.347656 51.523438 L 229.816406 51.523438 L 229.816406 58.015625 L 201.359375 58.015625 L 201.359375 77.582031 M 205.523438 61.597656 L 223.667969 61.597656 L 223.667969 67.230469 L 205.523438 67.230469 Z M 205.523438 61.597656 "/>
<path style=" stroke:none;fill-rule:nonzero;fill:rgb(86.27451%,9.803922%,25.490196%);fill-opacity:1;" d="M 265.046875 51.523438 C 268.859375 51.488281 271.972656 54.558594 272.007812 58.375 L 272.007812 70.734375 C 272.027344 72.566406 271.292969 74.324219 269.972656 75.589844 C 268.671875 76.902344 266.894531 77.625 265.046875 77.582031 L 240.582031 77.582031 C 238.753906 77.621094 236.988281 76.898438 235.707031 75.589844 C 234.390625 74.320312 233.664062 72.5625 233.703125 70.734375 L 233.703125 58.375 C 233.703125 56.550781 234.429688 54.800781 235.71875 53.515625 C 237.011719 52.226562 238.761719 51.511719 240.582031 51.523438 L 265.046875 51.523438 M 243.519531 71.105469 L 262.160156 71.105469 L 262.160156 58.015625 L 243.519531 58.015625 Z M 243.519531 71.105469 "/>
<path style=" stroke:none;fill-rule:nonzero;fill:rgb(86.27451%,9.803922%,25.490196%);fill-opacity:1;" d="M 288.289062 77.582031 L 278.160156 77.582031 L 278.160156 51.523438 L 308.234375 51.523438 C 310.089844 51.472656 311.886719 52.203125 313.1875 53.53125 C 314.535156 54.777344 315.289062 56.539062 315.269531 58.375 L 315.269531 61.488281 C 315.273438 62.25 315.144531 63.007812 314.898438 63.730469 C 314.640625 64.421875 314.273438 65.066406 313.808594 65.644531 C 313.339844 66.242188 312.785156 66.765625 312.164062 67.199219 C 311.527344 67.617188 310.828125 67.925781 310.097656 68.117188 L 316.203125 77.691406 L 304.628906 77.691406 L 295.308594 62.28125 L 305.078125 62.28125 L 305.078125 57.890625 L 288.289062 57.890625 L 288.289062 77.660156 "/>
<path style=" stroke:none;fill-rule:nonzero;fill:rgb(86.27451%,9.803922%,25.490196%);fill-opacity:1;" d="M 350.203125 67.230469 L 329.839844 67.230469 C 328.796875 67.078125 327.777344 66.792969 326.8125 66.375 C 325.953125 65.984375 325.160156 65.457031 324.464844 64.816406 C 323.8125 64.242188 323.285156 63.535156 322.910156 62.746094 C 322.542969 61.925781 322.359375 61.035156 322.367188 60.132812 L 322.367188 58.390625 C 322.34375 56.554688 323.113281 54.800781 324.480469 53.578125 C 325.882812 52.246094 327.753906 51.523438 329.683594 51.570312 L 360.90625 51.570312 L 360.90625 57.796875 L 332.945312 57.796875 L 332.945312 61.472656 L 353.25 61.472656 C 354.304688 61.558594 355.347656 61.769531 356.355469 62.09375 C 357.21875 62.378906 358.03125 62.800781 358.765625 63.339844 C 359.414062 63.847656 359.941406 64.488281 360.316406 65.222656 C 360.710938 65.992188 360.910156 66.847656 360.890625 67.714844 L 360.890625 70.828125 C 360.925781 72.691406 360.121094 74.476562 358.703125 75.683594 C 357.28125 77.011719 355.394531 77.726562 353.453125 77.675781 L 322.351562 77.675781 L 322.351562 71.449219 L 350.203125 71.449219 L 350.203125 67.230469 "/>
<path style=" stroke:none;fill-rule:nonzero;fill:rgb(86.27451%,9.803922%,25.490196%);fill-opacity:1;" d="M 138.136719 42.199219 L 136.273438 42.042969 C 135.605469 42.496094 133.570312 43.773438 133.570312 43.773438 L 135.839844 43.773438 Z M 138.136719 42.199219 "/>
<path style=" stroke:none;fill-rule:nonzero;fill:rgb(86.27451%,9.803922%,25.490196%);fill-opacity:1;" d="M 134.78125 41.890625 L 132.667969 41.78125 C 131.953125 42.246094 129.6875 43.804688 129.6875 43.804688 L 132.015625 43.804688 C 132.015625 43.804688 134.066406 42.324219 134.78125 41.890625 Z M 134.78125 41.890625 "/>
<path style=" stroke:none;fill-rule:nonzero;fill:rgb(86.27451%,9.803922%,25.490196%);fill-opacity:1;" d="M 141.382812 42.574219 L 139.738281 42.402344 L 137.65625 43.773438 L 139.566406 43.773438 C 139.566406 43.773438 140.761719 43.011719 141.382812 42.574219 Z M 141.382812 42.574219 "/>
<path style=" stroke:none;fill-rule:nonzero;fill:rgb(86.27451%,9.803922%,25.490196%);fill-opacity:1;" d="M 139.9375 36.488281 C 139.347656 37 138.726562 37.5 138.089844 38.042969 L 140.046875 38.042969 C 140.683594 37.546875 141.304688 37.03125 141.914062 36.488281 C 141.257812 36.503906 140.605469 36.503906 139.9375 36.488281 Z M 139.9375 36.488281 "/>
<path style=" stroke:none;fill-rule:nonzero;fill:rgb(86.27451%,9.803922%,25.490196%);fill-opacity:1;" d="M 131.285156 41.671875 L 128.925781 41.671875 C 128.148438 42.167969 125.820312 43.835938 125.820312 43.835938 L 128.507812 43.835938 C 128.507812 43.835938 130.511719 42.167969 131.285156 41.671875 Z M 131.285156 41.671875 "/>
<path style=" stroke:none;fill-rule:nonzero;fill:rgb(86.27451%,9.803922%,25.490196%);fill-opacity:1;" d="M 140.015625 39.460938 C 139.410156 39.914062 138.773438 40.347656 138.152344 40.800781 L 139.953125 40.925781 C 140.589844 40.488281 141.230469 40.019531 141.835938 39.570312 C 141.230469 39.523438 140.621094 39.476562 140.015625 39.460938 Z M 140.015625 39.460938 "/>
<path style=" stroke:none;fill-rule:nonzero;fill:rgb(86.27451%,9.803922%,25.490196%);fill-opacity:1;" d="M 123.910156 41.5 C 122.945312 41.5 121.953125 41.5 120.972656 41.59375 C 120.101562 42.121094 117.570312 43.804688 117.570312 43.804688 L 120.675781 43.804688 C 122.789062 42.324219 122.867188 42.152344 123.910156 41.5 Z M 123.910156 41.5 "/>
<path style=" stroke:none;fill-rule:nonzero;fill:rgb(86.27451%,9.803922%,25.490196%);fill-opacity:1;" d="M 127.667969 41.53125 L 125.027344 41.53125 C 124.203125 42.042969 121.921875 43.789062 121.921875 43.789062 L 124.902344 43.789062 C 124.902344 43.789062 126.84375 42.058594 127.667969 41.53125 Z M 127.667969 41.53125 "/>
<path style=" stroke:none;fill-rule:nonzero;fill:rgb(86.27451%,9.803922%,25.490196%);fill-opacity:1;" d="M 145.066406 39.925781 C 144.546875 39.867188 144.03125 39.820312 143.511719 39.789062 L 141.851562 40.984375 L 143.402344 41.140625 Z M 145.066406 39.925781 "/>
<path style=" stroke:none;fill-rule:nonzero;fill:rgb(86.27451%,9.803922%,25.490196%);fill-opacity:1;" d="M 115.582031 41.875 L 112.476562 42.121094 C 111.621094 42.605469 109.789062 43.804688 109.789062 43.804688 L 112.675781 43.804688 C 112.675781 43.804688 114.710938 42.324219 115.582031 41.875 Z M 115.582031 41.875 "/>
<path style=" stroke:none;fill-rule:nonzero;fill:rgb(86.27451%,9.803922%,25.490196%);fill-opacity:1;" d="M 119.808594 41.625 L 116.699219 41.796875 C 115.832031 42.308594 113.46875 43.773438 113.46875 43.773438 L 116.578125 43.773438 C 116.578125 43.773438 118.9375 42.167969 119.808594 41.625 Z M 119.808594 41.625 "/>
<path style=" stroke:none;fill-rule:nonzero;fill:rgb(86.27451%,9.803922%,25.490196%);fill-opacity:1;" d="M 108.546875 43.882812 C 108.546875 43.882812 110.332031 42.761719 111.1875 42.324219 L 107.941406 42.667969 L 105.640625 43.929688 Z M 108.546875 43.882812 "/>
<path style=" stroke:none;fill-rule:nonzero;fill:rgb(86.27451%,9.803922%,25.490196%);fill-opacity:1;" d="M 151.699219 30.511719 L 150.316406 30.511719 L 149.074219 31.816406 L 150.503906 31.816406 C 150.890625 31.429688 151.292969 30.960938 151.699219 30.511719 Z M 151.699219 30.511719 "/>
<path style=" stroke:none;fill-rule:nonzero;fill:rgb(86.27451%,9.803922%,25.490196%);fill-opacity:1;" d="M 143.621094 36.707031 L 142.066406 38.011719 C 142.625 38.011719 143.171875 38.011719 143.714844 38.105469 L 145.359375 36.769531 Z M 143.621094 36.707031 "/>
<path style=" stroke:none;fill-rule:nonzero;fill:rgb(86.27451%,9.803922%,25.490196%);fill-opacity:1;" d="M 149.898438 10.695312 L 147.722656 11.082031 C 147.363281 12.015625 146.960938 12.921875 146.542969 13.824219 L 148.761719 13.464844 C 149.167969 12.5625 149.539062 11.644531 149.898438 10.695312 Z M 149.898438 10.695312 "/>
<path style=" stroke:none;fill-rule:nonzero;fill:rgb(86.27451%,9.803922%,25.490196%);fill-opacity:1;" d="M 157.121094 10.070312 C 156.53125 10.070312 155.9375 10.070312 155.347656 10.226562 C 155.054688 11.019531 154.757812 11.785156 154.417969 12.546875 L 156.234375 12.390625 C 156.53125 11.628906 156.839844 10.851562 157.121094 10.070312 Z M 157.121094 10.070312 "/>
<path style=" stroke:none;fill-rule:nonzero;fill:rgb(86.27451%,9.803922%,25.490196%);fill-opacity:1;" d="M 156.390625 19.164062 L 154.835938 19.164062 C 154.527344 19.722656 154.183594 20.296875 153.828125 20.84375 L 155.378906 20.84375 C 155.753906 20.296875 156.09375 19.722656 156.390625 19.164062 Z M 156.390625 19.164062 "/>
<path style=" stroke:none;fill-rule:nonzero;fill:rgb(86.27451%,9.803922%,25.490196%);fill-opacity:1;" d="M 141.089844 15.144531 C 141.601562 14.117188 142.097656 13.074219 142.550781 12.03125 C 141.695312 12.25 140.824219 12.46875 139.96875 12.71875 C 139.488281 13.792969 138.976562 14.851562 138.417969 15.832031 Z M 141.089844 15.144531 "/>
<path style=" stroke:none;fill-rule:nonzero;fill:rgb(86.27451%,9.803922%,25.490196%);fill-opacity:1;" d="M 144.957031 14.304688 C 145.40625 13.339844 145.84375 12.34375 146.246094 11.347656 L 143.855469 11.847656 C 143.449219 12.859375 143 13.839844 142.519531 14.804688 C 143.324219 14.539062 144.101562 14.382812 144.957031 14.304688 Z M 144.957031 14.304688 "/>
<path style=" stroke:none;fill-rule:nonzero;fill:rgb(86.27451%,9.803922%,25.490196%);fill-opacity:1;" d="M 153.53125 10.320312 L 151.558594 10.554688 C 151.234375 11.441406 150.890625 12.28125 150.519531 13.105469 C 151.1875 13.011719 151.855469 12.921875 152.523438 12.859375 C 152.894531 12.03125 153.222656 11.191406 153.53125 10.320312 Z M 153.53125 10.320312 "/>
<path style=" stroke:none;fill-rule:nonzero;fill:rgb(86.27451%,9.803922%,25.490196%);fill-opacity:1;" d="M 151.15625 26.929688 L 149.601562 26.929688 C 149.199219 27.445312 148.792969 27.957031 148.359375 28.488281 L 149.910156 28.488281 C 150.316406 27.941406 150.765625 27.445312 151.15625 26.929688 Z M 151.15625 26.929688 "/>
<path style=" stroke:none;fill-rule:nonzero;fill:rgb(86.27451%,9.803922%,25.490196%);fill-opacity:1;" d="M 104.335938 42.605469 L 107.707031 42.136719 C 108.578125 41.65625 109.445312 41.15625 110.300781 40.582031 L 106.945312 41.109375 C 106.097656 41.640625 105.226562 42.136719 104.335938 42.605469 Z M 104.335938 42.605469 "/>
<path style=" stroke:none;fill-rule:nonzero;fill:rgb(86.27451%,9.803922%,25.490196%);fill-opacity:1;" d="M 137.191406 16.265625 C 137.765625 15.175781 138.324219 14.054688 138.851562 12.90625 C 137.921875 13.183594 136.988281 13.480469 136.070312 13.808594 C 135.511719 14.945312 134.9375 16.050781 134.332031 17.121094 Z M 137.191406 16.265625 "/>
<path style=" stroke:none;fill-rule:nonzero;fill:rgb(86.27451%,9.803922%,25.490196%);fill-opacity:1;" d="M 148.234375 30.386719 L 146.558594 30.386719 C 146.105469 30.882812 145.625 31.367188 145.144531 31.847656 C 145.71875 31.847656 146.277344 31.847656 146.820312 31.847656 C 147.300781 31.429688 147.785156 30.882812 148.234375 30.386719 Z M 148.234375 30.386719 "/>
<path style=" stroke:none;fill-rule:nonzero;fill:rgb(86.27451%,9.803922%,25.490196%);fill-opacity:1;" d="M 151.871094 34.011719 L 150.566406 34.011719 C 150.160156 34.402344 149.757812 34.789062 149.320312 35.164062 L 150.609375 35.164062 C 151.066406 34.800781 151.484375 34.417969 151.871094 34.011719 Z M 151.871094 34.011719 "/>
<path style=" stroke:none;fill-rule:nonzero;fill:rgb(86.27451%,9.803922%,25.490196%);fill-opacity:1;" d="M 153.902344 23.210938 C 153.375 23.210938 152.863281 23.210938 152.351562 23.210938 C 151.992188 23.738281 151.605469 24.269531 151.234375 24.765625 L 152.785156 24.765625 C 153.160156 24.269531 153.53125 23.753906 153.902344 23.210938 Z M 153.902344 23.210938 "/>
<path style=" stroke:none;fill-rule:nonzero;fill:rgb(86.27451%,9.803922%,25.490196%);fill-opacity:1;" d="M 154.648438 27.023438 C 154.199219 27.023438 153.75 27.023438 153.265625 27.023438 C 152.925781 27.476562 152.554688 27.925781 152.179688 28.363281 L 153.546875 28.363281 Z M 154.648438 27.023438 "/>
<path style=" stroke:none;fill-rule:nonzero;fill:rgb(86.27451%,9.803922%,25.490196%);fill-opacity:1;" d="M 145.875 21.761719 C 146.558594 21.667969 147.242188 21.605469 147.921875 21.542969 C 148.375 20.859375 148.808594 20.144531 149.214844 19.425781 L 147.179688 19.644531 C 146.757812 20.359375 146.324219 21.0625 145.875 21.761719 Z M 145.875 21.761719 "/>
<path style=" stroke:none;fill-rule:nonzero;fill:rgb(86.27451%,9.803922%,25.490196%);fill-opacity:1;" d="M 138.417969 39.320312 C 137.75 39.320312 137.066406 39.320312 136.382812 39.320312 C 135.730469 39.804688 135.0625 40.285156 134.378906 40.753906 C 135.046875 40.753906 135.730469 40.753906 136.398438 40.847656 Z M 138.417969 39.320312 "/>
<path style=" stroke:none;fill-rule:nonzero;fill:rgb(86.27451%,9.803922%,25.490196%);fill-opacity:1;" d="M 147.613281 26.929688 L 145.734375 27.039062 C 145.28125 27.613281 144.800781 28.175781 144.304688 28.71875 L 146.183594 28.640625 C 146.679688 28.097656 147.210938 27.519531 147.613281 26.929688 Z M 147.613281 26.929688 "/>
<path style=" stroke:none;fill-rule:nonzero;fill:rgb(86.27451%,9.803922%,25.490196%);fill-opacity:1;" d="M 136.148438 36.441406 L 134.144531 37.996094 L 136.335938 37.996094 C 137.019531 37.484375 137.703125 36.9375 138.355469 36.441406 Z M 136.148438 36.441406 "/>
<path style=" stroke:none;fill-rule:nonzero;fill:rgb(86.27451%,9.803922%,25.490196%);fill-opacity:1;" d="M 148.3125 17.621094 C 148.996094 17.527344 149.679688 17.449219 150.363281 17.402344 C 150.765625 16.625 151.15625 15.847656 151.527344 15.066406 C 150.859375 15.144531 150.175781 15.207031 149.507812 15.316406 C 149.136719 16.09375 148.761719 16.875 148.3125 17.621094 Z M 148.3125 17.621094 "/>
<path style=" stroke:none;fill-rule:nonzero;fill:rgb(86.27451%,9.803922%,25.490196%);fill-opacity:1;" d="M 150.316406 23.242188 L 148.515625 23.363281 C 148.109375 23.957031 147.675781 24.546875 147.226562 25.125 L 149.042969 25.015625 C 149.492188 24.4375 149.925781 23.847656 150.316406 23.242188 Z M 150.316406 23.242188 "/>
<path style=" stroke:none;fill-rule:nonzero;fill:rgb(86.27451%,9.803922%,25.490196%);fill-opacity:1;" d="M 141.648438 33.484375 C 140.933594 33.484375 140.234375 33.484375 139.519531 33.484375 C 138.929688 34.042969 138.308594 34.589844 137.6875 35.132812 C 138.402344 35.132812 139.101562 35.132812 139.816406 35.132812 C 140.4375 34.542969 140.996094 34.042969 141.648438 33.484375 Z M 141.648438 33.484375 "/>
<path style=" stroke:none;fill-rule:nonzero;fill:rgb(86.27451%,9.803922%,25.490196%);fill-opacity:1;" d="M 119.25 39.601562 L 116.140625 39.898438 C 115.304688 40.457031 114.433594 40.984375 113.5625 41.453125 L 116.667969 41.1875 C 117.507812 40.769531 118.363281 40.160156 119.25 39.601562 Z M 119.25 39.601562 "/>
<path style=" stroke:none;fill-rule:nonzero;fill:rgb(86.27451%,9.803922%,25.490196%);fill-opacity:1;" d="M 134.875 39.210938 C 134.128906 39.210938 133.320312 39.210938 132.605469 39.210938 C 131.910156 39.726562 131.179688 40.222656 130.449219 40.769531 L 132.699219 40.769531 C 133.445312 40.175781 134.160156 39.664062 134.875 39.210938 Z M 134.875 39.210938 "/>
<path style=" stroke:none;fill-rule:nonzero;fill:rgb(86.27451%,9.803922%,25.490196%);fill-opacity:1;" d="M 123.441406 39.210938 L 120.335938 39.429688 C 119.480469 40.003906 118.628906 40.550781 117.757812 41.09375 L 120.863281 40.910156 C 121.75 40.425781 122.605469 39.851562 123.441406 39.210938 Z M 123.441406 39.210938 "/>
<path style=" stroke:none;fill-rule:nonzero;fill:rgb(86.27451%,9.803922%,25.490196%);fill-opacity:1;" d="M 111.324219 39.988281 C 112.179688 39.460938 113.003906 38.898438 113.84375 38.324219 L 110.503906 38.914062 C 109.679688 39.476562 108.824219 40.003906 107.972656 40.472656 Z M 111.324219 39.988281 "/>
<path style=" stroke:none;fill-rule:nonzero;fill:rgb(86.27451%,9.803922%,25.490196%);fill-opacity:1;" d="M 127.449219 39.101562 L 124.621094 39.226562 C 123.800781 39.789062 122.976562 40.347656 122.136719 40.894531 L 124.949219 40.800781 C 125.820312 40.238281 126.625 39.679688 127.449219 39.101562 Z M 127.449219 39.101562 "/>
<path style=" stroke:none;fill-rule:nonzero;fill:rgb(86.27451%,9.803922%,25.490196%);fill-opacity:1;" d="M 131.226562 39.070312 L 128.675781 39.070312 C 127.917969 39.617188 127.125 40.128906 126.378906 40.628906 L 128.894531 40.628906 C 129.6875 40.160156 130.464844 39.617188 131.226562 39.070312 Z M 131.226562 39.070312 "/>
<path style=" stroke:none;fill-rule:nonzero;fill:rgb(86.27451%,9.803922%,25.490196%);fill-opacity:1;" d="M 108.996094 41.984375 L 112.242188 41.625 C 113.113281 41.109375 113.980469 40.597656 114.820312 40.066406 C 113.75 40.191406 112.660156 40.316406 111.574219 40.472656 C 110.71875 40.984375 109.929688 41.484375 108.996094 41.984375 Z M 108.996094 41.984375 "/>
<path style=" stroke:none;fill-rule:nonzero;fill:rgb(86.27451%,9.803922%,25.490196%);fill-opacity:1;" d="M 110.703125 30.617188 C 111.714844 30.011719 112.722656 29.40625 113.8125 28.84375 C 114.648438 27.988281 115.488281 27.101562 116.3125 26.199219 C 115.332031 26.804688 114.386719 27.429688 113.421875 28.082031 C 112.460938 28.734375 111.605469 29.871094 110.703125 30.617188 Z M 110.703125 30.617188 "/>
<path style=" stroke:none;fill-rule:nonzero;fill:rgb(86.27451%,9.803922%,25.490196%);fill-opacity:1;" d="M 114.589844 30.136719 C 115.394531 29.34375 116.140625 28.578125 116.964844 27.691406 C 115.925781 28.175781 114.898438 28.671875 113.859375 29.25 C 113.050781 30.042969 112.210938 30.804688 111.371094 31.601562 C 112.507812 31.070312 113.578125 30.589844 114.589844 30.136719 Z M 114.589844 30.136719 "/>
<path style=" stroke:none;fill-rule:nonzero;fill:rgb(86.27451%,9.803922%,25.490196%);fill-opacity:1;" d="M 119.25 26.074219 C 120.242188 25.621094 121.253906 25.171875 122.355469 24.75 C 123.101562 23.832031 123.832031 22.882812 124.515625 21.917969 C 123.535156 22.351562 122.558594 22.835938 121.59375 23.320312 C 120.707031 24.269531 119.933594 25.203125 119.25 26.074219 Z M 119.25 26.074219 "/>
<path style=" stroke:none;fill-rule:nonzero;fill:rgb(86.27451%,9.803922%,25.490196%);fill-opacity:1;" d="M 114.929688 28.191406 L 118.035156 26.632812 C 118.828125 25.746094 119.589844 24.84375 120.367188 23.894531 C 119.371094 24.40625 118.410156 24.953125 117.445312 25.449219 C 116.59375 26.433594 115.769531 27.335938 114.929688 28.191406 Z M 114.929688 28.191406 "/>
<path style=" stroke:none;fill-rule:nonzero;fill:rgb(86.27451%,9.803922%,25.490196%);fill-opacity:1;" d="M 112.691406 36.753906 C 111.574219 37 110.441406 37.265625 109.320312 37.546875 C 108.484375 38.121094 107.644531 38.699219 106.804688 39.242188 C 107.941406 38.976562 109.074219 38.746094 110.222656 38.511719 C 111.0625 37.933594 111.886719 37.34375 112.691406 36.753906 Z M 112.691406 36.753906 "/>
<path style=" stroke:none;fill-rule:nonzero;fill:rgb(86.27451%,9.803922%,25.490196%);fill-opacity:1;" d="M 144.226562 18.335938 C 145.003906 18.195312 145.78125 18.105469 146.542969 17.996094 C 147.023438 17.152344 147.472656 16.28125 147.894531 15.394531 L 145.59375 15.769531 C 145.160156 16.65625 144.707031 17.496094 144.226562 18.335938 Z M 144.226562 18.335938 "/>
<path style=" stroke:none;fill-rule:nonzero;fill:rgb(86.27451%,9.803922%,25.490196%);fill-opacity:1;" d="M 107.894531 34.542969 C 109.011719 34.089844 110.113281 33.640625 111.234375 33.21875 L 113.6875 31.039062 C 112.585938 31.492188 111.511719 31.957031 110.425781 32.441406 C 109.601562 33.203125 108.761719 33.902344 107.894531 34.542969 Z M 107.894531 34.542969 "/>
<path style=" stroke:none;fill-rule:nonzero;fill:rgb(86.27451%,9.803922%,25.490196%);fill-opacity:1;" d="M 140.09375 19.191406 L 142.65625 18.695312 C 143.1875 17.792969 143.683594 16.875 144.210938 15.925781 C 143.371094 16.078125 142.519531 16.25 141.679688 16.4375 C 141.152344 17.417969 140.621094 18.289062 140.09375 19.191406 Z M 140.09375 19.191406 "/>
<path style=" stroke:none;fill-rule:nonzero;fill:rgb(86.27451%,9.803922%,25.490196%);fill-opacity:1;" d="M 135.886719 20.222656 L 138.710938 19.582031 C 139.285156 18.617188 139.863281 17.621094 140.390625 16.609375 C 139.457031 16.828125 138.542969 17.046875 137.625 17.292969 C 137.066406 18.289062 136.492188 19.253906 135.886719 20.222656 Z M 135.886719 20.222656 "/>
<path style=" stroke:none;fill-rule:nonzero;fill:rgb(86.27451%,9.803922%,25.490196%);fill-opacity:1;" d="M 123.378906 24.269531 C 124.390625 23.863281 125.398438 23.488281 126.394531 23.132812 C 127.09375 22.167969 127.777344 21.21875 128.429688 20.207031 L 125.492188 21.402344 C 124.808594 22.382812 124.109375 23.347656 123.378906 24.269531 Z M 123.378906 24.269531 "/>
<path style=" stroke:none;fill-rule:nonzero;fill:rgb(86.27451%,9.803922%,25.490196%);fill-opacity:1;" d="M 141.710938 22.414062 L 144.101562 22.089844 C 144.628906 21.324219 145.113281 20.53125 145.65625 19.722656 L 143.324219 20.082031 C 142.734375 20.875 142.222656 21.652344 141.710938 22.414062 Z M 141.710938 22.414062 "/>
<path style=" stroke:none;fill-rule:nonzero;fill:rgb(86.27451%,9.803922%,25.490196%);fill-opacity:1;" d="M 131.675781 21.386719 C 132.652344 21.109375 133.632812 20.828125 134.625 20.578125 C 135.257812 19.601562 135.863281 18.566406 136.445312 17.464844 L 133.554688 18.320312 C 132.996094 19.425781 132.375 20.421875 131.675781 21.386719 Z M 131.675781 21.386719 "/>
<path style=" stroke:none;fill-rule:nonzero;fill:rgb(86.27451%,9.803922%,25.490196%);fill-opacity:1;" d="M 127.574219 22.710938 C 128.570312 22.367188 129.5625 22.042969 130.558594 21.746094 C 131.226562 20.78125 131.847656 19.785156 132.46875 18.773438 C 131.503906 19.085938 130.527344 19.425781 129.5625 19.785156 C 128.925781 20.78125 128.257812 21.761719 127.574219 22.710938 Z M 127.574219 22.710938 "/>
<path style=" stroke:none;fill-rule:nonzero;fill:rgb(86.27451%,9.803922%,25.490196%);fill-opacity:1;" d="M 82.355469 46.902344 L 81.097656 47.398438 C 82.089844 47.042969 83.070312 46.667969 84.046875 46.277344 L 85.042969 45.84375 L 82.898438 46.699219 L 83.894531 46.308594 Z M 82.355469 46.902344 "/>
<path style=" stroke:none;fill-rule:nonzero;fill:rgb(86.27451%,9.803922%,25.490196%);fill-opacity:1;" d="M 85.539062 89.554688 C 85.398438 92.214844 85.308594 96.683594 85.292969 99.53125 C 88.179688 100.183594 93.632812 101.726562 94.765625 102.054688 L 94.765625 91.28125 C 93.632812 91.0625 88.179688 90.003906 85.539062 89.554688 Z M 85.539062 89.554688 "/>
<path style=" stroke:none;fill-rule:nonzero;fill:rgb(86.27451%,9.803922%,25.490196%);fill-opacity:1;" d="M 72.507812 95.996094 C 75.085938 96.574219 78.082031 97.554688 80.832031 98.128906 C 80.972656 95.546875 81.285156 91.578125 81.53125 89.179688 C 79.015625 88.757812 76.328125 88.261719 73.984375 87.871094 C 73.515625 90.066406 72.878906 93.695312 72.507812 95.996094 Z M 72.507812 95.996094 "/>
<path style=" stroke:none;fill-rule:nonzero;fill:rgb(86.27451%,9.803922%,25.490196%);fill-opacity:1;" d="M 74.199219 84.585938 L 81.96875 85.707031 C 82.277344 83.21875 82.652344 80.820312 83.070312 78.5 L 75.894531 77.925781 C 75.394531 80.074219 74.789062 82.285156 74.199219 84.585938 Z M 74.199219 84.585938 "/>
<path style=" stroke:none;fill-rule:nonzero;fill:rgb(86.27451%,9.803922%,25.490196%);fill-opacity:1;" d="M 76.777344 75.496094 L 83.722656 75.886719 C 84.171875 73.722656 84.65625 71.636719 85.277344 69.660156 L 78.921875 69.660156 C 78.113281 71.542969 77.429688 73.457031 76.777344 75.496094 Z M 76.777344 75.496094 "/>
<path style=" stroke:none;fill-rule:nonzero;fill:rgb(86.27451%,9.803922%,25.490196%);fill-opacity:1;" d="M 87.933594 69.566406 C 87.464844 71.652344 87.0625 73.816406 86.703125 76.042969 C 88.988281 76.167969 93.726562 76.367188 94.765625 76.414062 L 94.765625 69.410156 Z M 87.933594 69.566406 "/>
<path style=" stroke:none;fill-rule:nonzero;fill:rgb(86.27451%,9.803922%,25.490196%);fill-opacity:1;" d="M 86.316406 78.75 C 85.992188 81.148438 85.726562 83.636719 85.523438 86.207031 C 88.117188 86.582031 93.539062 87.515625 94.765625 87.761719 L 94.765625 79.527344 C 93.851562 79.402344 90.027344 79.03125 86.316406 78.75 Z M 86.316406 78.75 "/>
<path style=" stroke:none;fill-rule:nonzero;fill:rgb(86.27451%,9.803922%,25.490196%);fill-opacity:1;" d="M 61.445312 92.835938 C 63.433594 93.289062 66.105469 94.082031 68.171875 94.566406 C 68.5625 92.558594 69.074219 89.367188 69.539062 87.484375 C 67.613281 87.171875 65.53125 86.734375 63.714844 86.425781 C 63.078125 88.167969 62.023438 90.984375 61.445312 92.835938 Z M 61.445312 92.835938 "/>
<path style=" stroke:none;fill-rule:nonzero;fill:rgb(86.27451%,9.803922%,25.490196%);fill-opacity:1;" d="M 25.160156 78.859375 C 23.777344 79.980469 22.410156 81.148438 21.042969 82.347656 L 25.019531 83.421875 C 26.308594 82.128906 27.613281 80.882812 28.917969 79.683594 Z M 25.160156 78.859375 "/>
<path style=" stroke:none;fill-rule:nonzero;fill:rgb(86.27451%,9.803922%,25.490196%);fill-opacity:1;" d="M 43.320312 88.074219 L 48.832031 89.367188 C 49.640625 87.808594 50.667969 85.894531 51.519531 84.402344 C 49.96875 84.136719 47.777344 83.699219 46.332031 83.421875 C 45.371094 84.804688 44.25 86.59375 43.320312 88.074219 Z M 43.320312 88.074219 "/>
<path style=" stroke:none;fill-rule:nonzero;fill:rgb(86.27451%,9.803922%,25.490196%);fill-opacity:1;" d="M 31.652344 80.152344 C 30.285156 81.457031 28.933594 82.8125 27.597656 84.199219 L 32.164062 85.367188 C 33.410156 83.871094 34.667969 82.425781 35.941406 81.023438 Z M 31.652344 80.152344 "/>
<path style=" stroke:none;fill-rule:nonzero;fill:rgb(86.27451%,9.803922%,25.490196%);fill-opacity:1;" d="M 90.074219 61.566406 C 89.5 63.386719 88.957031 65.285156 88.523438 67.214844 L 94.734375 66.980469 L 94.734375 61.160156 C 94.050781 61.207031 91.785156 61.378906 90.074219 61.566406 Z M 90.074219 61.566406 "/>
<path style=" stroke:none;fill-rule:nonzero;fill:rgb(86.27451%,9.803922%,25.490196%);fill-opacity:1;" d="M 51.972656 90.347656 C 53.648438 90.722656 56.042969 91.4375 57.8125 91.902344 C 58.417969 90.207031 59.613281 87.699219 60.28125 86.113281 L 54.550781 85.179688 C 53.773438 86.59375 52.703125 88.757812 51.972656 90.347656 Z M 51.972656 90.347656 "/>
<path style=" stroke:none;fill-rule:nonzero;fill:rgb(86.27451%,9.803922%,25.490196%);fill-opacity:1;" d="M 66.992188 77.269531 C 66.136719 79.140625 65.300781 81.070312 64.523438 83.0625 L 71.203125 84.042969 C 71.8125 81.894531 72.464844 79.820312 73.160156 77.816406 Z M 66.992188 77.269531 "/>
<path style=" stroke:none;fill-rule:nonzero;fill:rgb(86.27451%,9.803922%,25.490196%);fill-opacity:1;" d="M 38.660156 81.753906 C 37.507812 83.109375 36.265625 84.789062 35.148438 86.222656 C 36.703125 86.59375 38.753906 87.046875 40.335938 87.4375 C 41.363281 85.878906 42.496094 84.121094 43.566406 82.671875 Z M 38.660156 81.753906 "/>
<path style=" stroke:none;fill-rule:nonzero;fill:rgb(86.27451%,9.803922%,25.490196%);fill-opacity:1;" d="M 161.453125 20.609375 L 162.570312 20.609375 C 162.835938 20.191406 163.085938 19.753906 163.332031 19.300781 L 162.214844 19.300781 C 161.964844 19.753906 161.71875 20.175781 161.453125 20.609375 Z M 161.453125 20.609375 "/>
<path style=" stroke:none;fill-rule:nonzero;fill:rgb(86.27451%,9.803922%,25.490196%);fill-opacity:1;" d="M 162.742188 9.992188 C 162.527344 10.617188 162.292969 11.253906 162.027344 11.863281 L 163.425781 11.863281 C 163.691406 11.238281 163.90625 10.632812 164.125 9.992188 C 163.691406 9.960938 163.222656 9.960938 162.742188 9.992188 Z M 162.742188 9.992188 "/>
<path style=" stroke:none;fill-rule:nonzero;fill:rgb(86.27451%,9.803922%,25.490196%);fill-opacity:1;" d="M 160.832031 14.804688 C 160.582031 15.363281 160.335938 15.894531 160.054688 16.4375 L 161.375 16.4375 C 161.640625 15.910156 161.902344 15.363281 162.152344 14.882812 Z M 160.832031 14.804688 "/>
<path style=" stroke:none;fill-rule:nonzero;fill:rgb(86.27451%,9.803922%,25.490196%);fill-opacity:1;" d="M 163.785156 16.3125 L 164.902344 16.3125 C 165.136719 15.847656 165.367188 15.363281 165.585938 14.882812 L 164.453125 14.882812 C 164.296875 15.363281 164.015625 15.863281 163.785156 16.3125 Z M 163.785156 16.3125 "/>
<path style=" stroke:none;fill-rule:nonzero;fill:rgb(86.27451%,9.803922%,25.490196%);fill-opacity:1;" d="M 95.542969 48.550781 C 94.796875 49.953125 94.082031 51.382812 93.414062 52.863281 L 94.96875 52.488281 C 95.25 50.902344 95.917969 49.410156 96.910156 48.148438 Z M 95.542969 48.550781 "/>
<path style=" stroke:none;fill-rule:nonzero;fill:rgb(86.27451%,9.803922%,25.490196%);fill-opacity:1;" d="M 166.378906 10.070312 C 166.175781 10.617188 165.988281 11.175781 165.757812 11.628906 L 166.96875 11.628906 C 167.171875 11.082031 167.386719 10.539062 167.574219 10.070312 Z M 166.378906 10.070312 "/>
<path style=" stroke:none;fill-rule:nonzero;fill:rgb(86.27451%,9.803922%,25.490196%);fill-opacity:1;" d="M 158.828125 24.609375 L 159.960938 24.609375 C 160.242188 24.207031 160.539062 23.785156 160.800781 23.347656 L 159.636719 23.347656 C 159.402344 23.800781 159.125 24.207031 158.828125 24.609375 Z M 158.828125 24.609375 "/>
<path style=" stroke:none;fill-rule:nonzero;fill:rgb(86.27451%,9.803922%,25.490196%);fill-opacity:1;" d="M 104.117188 43.882812 L 106.652344 42.777344 L 103.296875 43.226562 L 102.96875 43.335938 L 103.386719 42.652344 C 104.148438 42.261719 104.941406 41.859375 105.609375 41.4375 L 104.054688 41.71875 L 104.335938 41.28125 L 106.726562 40.832031 C 107.597656 40.316406 108.4375 39.773438 109.277344 39.273438 C 108.125 39.492188 106.992188 39.726562 105.84375 39.972656 C 105.53125 40.144531 105.203125 40.273438 104.863281 40.363281 L 104.289062 41.296875 C 103.730469 41.484375 100.125 42.683594 98.804688 43.273438 C 98.011719 44.488281 97.253906 45.75 96.507812 47.042969 C 97.066406 46.839844 97.90625 46.574219 98.757812 46.308594 C 99.769531 45.339844 101 44.636719 102.347656 44.253906 C 103.714844 43.882812 104.117188 43.882812 104.117188 43.882812 Z M 104.117188 43.882812 "/>
<path style=" stroke:none;fill-rule:nonzero;fill:rgb(86.27451%,9.803922%,25.490196%);fill-opacity:1;" d="M 155.921875 28.316406 L 157.089844 28.316406 L 158.050781 27.132812 C 157.667969 27.132812 157.28125 27.132812 156.886719 27.132812 C 156.53125 27.566406 156.265625 27.957031 155.921875 28.316406 Z M 155.921875 28.316406 "/>
<path style=" stroke:none;fill-rule:nonzero;fill:rgb(86.27451%,9.803922%,25.490196%);fill-opacity:1;" d="M 94.765625 54.171875 C 94.191406 54.265625 93.445312 54.421875 92.625 54.589844 C 91.957031 56.148438 91.335938 57.84375 90.742188 59.527344 C 92.296875 59.292969 94.160156 59.011719 94.765625 58.902344 Z M 94.765625 54.171875 "/>
<path style=" stroke:none;fill-rule:nonzero;fill:rgb(86.27451%,9.803922%,25.490196%);fill-opacity:1;" d="M 152.753906 31.832031 L 153.980469 31.832031 C 154.355469 31.445312 154.710938 31.054688 155.070312 30.648438 L 153.859375 30.648438 C 153.5 31.070312 153.144531 31.429688 152.753906 31.832031 Z M 152.753906 31.832031 "/>
<path style=" stroke:none;fill-rule:nonzero;fill:rgb(86.27451%,9.803922%,25.490196%);fill-opacity:1;" d="M 157.382812 23.257812 L 156.0625 23.257812 C 155.753906 23.722656 155.425781 24.191406 155.085938 24.640625 L 156.40625 24.640625 C 156.746094 24.207031 157.074219 23.742188 157.382812 23.257812 Z M 157.382812 23.257812 "/>
<path style=" stroke:none;fill-rule:nonzero;fill:rgb(86.27451%,9.803922%,25.490196%);fill-opacity:1;" d="M 99.488281 38.308594 L 97.9375 39.257812 L 99.289062 38.417969 Z M 99.488281 38.308594 "/>
<path style=" stroke:none;fill-rule:nonzero;fill:rgb(86.27451%,9.803922%,25.490196%);fill-opacity:1;" d="M 90.015625 43.617188 L 89.40625 43.929688 C 90.417969 43.460938 91.425781 42.964844 92.421875 42.371094 L 93.351562 41.84375 L 93.058594 42 C 92.28125 42.371094 91.503906 42.761719 90.742188 43.164062 L 91.894531 42.605469 C 91.289062 43.011719 90.636719 43.320312 90.015625 43.617188 Z M 90.015625 43.617188 "/>
<path style=" stroke:none;fill-rule:nonzero;fill:rgb(86.27451%,9.803922%,25.490196%);fill-opacity:1;" d="M 95.078125 40.957031 L 93.351562 41.921875 L 94.550781 41.265625 Z M 95.078125 40.957031 "/>
<path style=" stroke:none;fill-rule:nonzero;fill:rgb(86.27451%,9.803922%,25.490196%);fill-opacity:1;" d="M 90.015625 43.617188 L 90.742188 43.242188 L 88.910156 44.144531 L 89.035156 44.144531 Z M 90.015625 43.617188 "/>
<path style=" stroke:none;fill-rule:nonzero;fill:rgb(86.27451%,9.803922%,25.490196%);fill-opacity:1;" d="M 94.550781 41.265625 L 93.648438 41.8125 C 94.660156 41.265625 95.683594 40.691406 96.753906 40.113281 C 97.175781 39.820312 97.609375 39.539062 98.042969 39.257812 L 97.175781 39.804688 L 95.140625 40.957031 L 96.011719 40.488281 Z M 94.550781 41.265625 "/>
<path style=" stroke:none;fill-rule:nonzero;fill:rgb(86.27451%,9.803922%,25.490196%);fill-opacity:1;" d="M 86.207031 45.34375 L 85.246094 45.796875 C 86.238281 45.375 87.21875 44.941406 88.210938 44.488281 L 88.910156 44.144531 L 86.828125 45.066406 L 87.871094 44.628906 Z M 86.207031 45.34375 "/>
<path style=" stroke:none;fill-rule:nonzero;fill:rgb(86.27451%,9.803922%,25.490196%);fill-opacity:1;" d="M 86.828125 45.066406 L 85.042969 45.84375 L 86.207031 45.34375 Z M 86.828125 45.066406 "/>
<path style=" stroke:none;fill-rule:nonzero;fill:rgb(86.27451%,9.803922%,25.490196%);fill-opacity:1;" d="M 129.222656 18.976562 C 129.890625 17.933594 130.511719 16.84375 131.132812 15.722656 C 130.183594 16.125 129.269531 16.5625 128.367188 17 C 127.714844 18.105469 127.046875 19.164062 126.347656 20.207031 C 127.292969 19.769531 128.257812 19.347656 129.222656 18.976562 Z M 129.222656 18.976562 "/>
<path style=" stroke:none;fill-rule:nonzero;fill:rgb(86.27451%,9.803922%,25.490196%);fill-opacity:1;" d="M 125.230469 20.703125 C 125.929688 19.675781 126.625 18.601562 127.28125 17.589844 C 126.347656 18.058594 125.445312 18.554688 124.546875 19.148438 C 123.832031 20.234375 123.101562 21.261719 122.339844 22.261719 C 123.289062 21.621094 124.25 21.15625 125.230469 20.703125 Z M 125.230469 20.703125 "/>
<path style=" stroke:none;fill-rule:nonzero;fill:rgb(86.27451%,9.803922%,25.490196%);fill-opacity:1;" d="M 133.230469 17.496094 C 133.851562 16.421875 134.441406 15.316406 135.015625 14.179688 C 134.0625 14.523438 133.128906 14.882812 132.21875 15.253906 C 131.628906 16.375 131.007812 17.480469 130.355469 18.539062 C 131.285156 18.164062 132.25 17.824219 133.230469 17.496094 Z M 133.230469 17.496094 "/>
<path style=" stroke:none;fill-rule:nonzero;fill:rgb(86.27451%,9.803922%,25.490196%);fill-opacity:1;" d="M 121.222656 22.726562 C 121.996094 21.714844 122.773438 20.6875 123.488281 19.613281 C 122.558594 20.160156 121.671875 20.734375 120.785156 21.339844 C 120 22.378906 119.191406 23.417969 118.363281 24.453125 C 119.25 23.800781 120.257812 23.242188 121.222656 22.726562 Z M 121.222656 22.726562 "/>
<path style=" stroke:none;fill-rule:nonzero;fill:rgb(86.27451%,9.803922%,25.490196%);fill-opacity:1;" d="M 115.847656 39.367188 C 116.699219 38.808594 117.523438 38.230469 118.347656 37.640625 L 115.117188 38.121094 C 114.292969 38.714844 113.453125 39.257812 112.601562 39.804688 Z M 115.847656 39.367188 "/>
<path style=" stroke:none;fill-rule:nonzero;fill:rgb(86.27451%,9.803922%,25.490196%);fill-opacity:1;" d="M 102.457031 36.410156 L 102.75 36.238281 L 102.300781 36.597656 C 102.644531 36.378906 102.96875 36.144531 103.296875 35.910156 C 104.070312 35.445312 104.847656 34.992188 105.671875 34.542969 C 104.800781 35.445312 103.964844 36.363281 103.15625 37.3125 C 104.382812 36.566406 107.613281 34.773438 107.613281 34.773438 L 108.917969 32.8125 L 110.191406 32.175781 C 111.0625 31.414062 111.902344 30.617188 112.722656 29.839844 C 111.746094 30.371094 110.765625 30.914062 109.804688 31.398438 L 109.804688 31.304688 C 109.804688 31.304688 107.441406 33.09375 106.121094 34.058594 C 106.867188 33.453125 107.675781 32.859375 108.34375 32.222656 L 107.148438 32.984375 L 108.699219 31.722656 L 109.367188 31.289062 C 110.285156 30.480469 111.1875 29.636719 112.085938 28.765625 L 110.953125 29.605469 L 111.558594 28.953125 C 112.097656 28.519531 112.617188 28.097656 113.113281 27.691406 C 114.027344 26.757812 114.945312 25.808594 115.847656 24.8125 C 114.976562 25.558594 114.121094 26.371094 113.300781 27.117188 C 112.476562 27.863281 111.558594 28.765625 110.6875 29.558594 L 109.277344 30.789062 L 108.652344 31.351562 C 108.125 31.800781 107.582031 32.253906 107.101562 32.671875 L 108.09375 31.816406 C 107.117188 32.628906 106.121094 33.375 105.128906 34.183594 C 104.414062 34.699219 103.714844 35.242188 103.015625 35.742188 Z M 107.566406 32.660156 L 106.976562 33.21875 L 106.136719 33.761719 L 106.773438 33.203125 Z M 107.566406 32.660156 "/>
<path style=" stroke:none;fill-rule:nonzero;fill:rgb(86.27451%,9.803922%,25.490196%);fill-opacity:1;" d="M 117.261719 25.0625 C 118.097656 24.097656 118.921875 23.101562 119.746094 22.058594 C 118.84375 22.710938 117.960938 23.378906 117.105469 24.066406 C 116.21875 25.0625 115.332031 26.042969 114.433594 26.960938 C 115.363281 26.308594 116.3125 25.667969 117.261719 25.0625 Z M 117.261719 25.0625 "/>
<path style=" stroke:none;fill-rule:nonzero;fill:rgb(86.27451%,9.803922%,25.490196%);fill-opacity:1;" d="M 51.894531 57.734375 L 48.785156 57.921875 C 47.234375 58.546875 45.679688 59.183594 44.125 59.851562 L 47.328125 59.851562 C 48.800781 59.089844 50.355469 58.40625 51.894531 57.734375 Z M 51.894531 57.734375 "/>
<path style=" stroke:none;fill-rule:nonzero;fill:rgb(86.27451%,9.803922%,25.490196%);fill-opacity:1;" d="M 19.054688 77.691406 C 17.8125 78.574219 16.570312 79.476562 15.328125 80.398438 C 16.351562 80.726562 17.394531 81.039062 18.433594 81.320312 C 19.628906 80.339844 20.828125 79.355469 22.023438 78.421875 Z M 19.054688 77.691406 "/>
<path style=" stroke:none;fill-rule:nonzero;fill:rgb(86.27451%,9.803922%,25.490196%);fill-opacity:1;" d="M 38.738281 63.960938 L 35.367188 63.746094 C 33.703125 64.539062 32.011719 65.300781 30.332031 66.203125 C 31.480469 66.34375 32.632812 66.484375 33.8125 66.59375 C 35.460938 65.675781 37.105469 64.816406 38.738281 63.960938 Z M 38.738281 63.960938 "/>
<path style=" stroke:none;fill-rule:nonzero;fill:rgb(86.27451%,9.803922%,25.490196%);fill-opacity:1;" d="M 45.417969 60.664062 L 42.183594 60.664062 C 40.632812 61.363281 38.9375 62.078125 37.308594 62.839844 C 38.394531 62.839844 39.496094 62.964844 40.632812 62.996094 Z M 45.417969 60.664062 "/>
<path style=" stroke:none;fill-rule:nonzero;fill:rgb(86.27451%,9.803922%,25.490196%);fill-opacity:1;" d="M 31.3125 67.839844 L 28.203125 67.433594 C 26.652344 68.210938 25.191406 68.988281 23.683594 69.832031 C 24.726562 70.046875 25.78125 70.234375 26.792969 70.421875 C 28.359375 69.519531 29.835938 68.664062 31.3125 67.839844 Z M 31.3125 67.839844 "/>
<path style=" stroke:none;fill-rule:nonzero;fill:rgb(86.27451%,9.803922%,25.490196%);fill-opacity:1;" d="M 23.589844 72.195312 L 20.871094 71.683594 C 19.566406 72.398438 18.277344 73.144531 16.972656 73.925781 L 19.800781 74.625 C 21.058594 73.785156 22.316406 72.992188 23.589844 72.195312 Z M 23.589844 72.195312 "/>
<path style=" stroke:none;fill-rule:nonzero;fill:rgb(86.27451%,9.803922%,25.490196%);fill-opacity:1;" d="M 82.867188 46.699219 L 81.207031 47.320312 L 82.355469 46.902344 Z M 82.867188 46.699219 "/>
<path style=" stroke:none;fill-rule:nonzero;fill:rgb(86.27451%,9.803922%,25.490196%);fill-opacity:1;" d="M 13.308594 76.460938 C 12.21875 77.132812 11.132812 77.816406 10.046875 78.53125 L 12.484375 79.296875 C 13.539062 78.53125 14.582031 77.738281 15.589844 77.070312 C 14.835938 76.882812 14.074219 76.679688 13.308594 76.460938 Z M 13.308594 76.460938 "/>
<path style=" stroke:none;fill-rule:nonzero;fill:rgb(86.27451%,9.803922%,25.490196%);fill-opacity:1;" d="M 79.03125 48.085938 L 78.269531 48.332031 L 78.9375 48.117188 Z M 79.03125 48.085938 "/>
<path style=" stroke:none;fill-rule:nonzero;fill:rgb(86.27451%,9.803922%,25.490196%);fill-opacity:1;" d="M 58.183594 55.136719 L 55.171875 55.507812 C 53.617188 56.054688 52.066406 56.613281 50.605469 57.222656 L 53.710938 56.972656 C 55.1875 56.335938 56.695312 55.726562 58.183594 55.136719 Z M 58.183594 55.136719 "/>
<path style=" stroke:none;fill-rule:nonzero;fill:rgb(86.27451%,9.803922%,25.490196%);fill-opacity:1;" d="M 71.824219 50.308594 L 72.648438 50.109375 L 73.191406 49.984375 L 72.957031 50.0625 L 73.269531 49.96875 L 74.820312 49.609375 L 75.101562 49.53125 C 73.8125 50.03125 72.523438 50.527344 71.234375 51.089844 L 74.246094 50.265625 C 75.289062 49.796875 76.34375 49.34375 77.355469 48.910156 L 77.523438 48.910156 L 77.414062 48.910156 L 77.835938 48.722656 L 78.425781 48.582031 C 77.429688 49.019531 76.4375 49.453125 75.441406 49.921875 L 78.550781 48.941406 L 80.894531 47.804688 L 81.390625 47.617188 L 81.066406 47.710938 L 81.5 47.507812 L 82.136719 47.335938 L 79.792969 48.519531 C 80.847656 48.164062 81.890625 47.773438 82.898438 47.382812 L 84.625 46.417969 L 85.230469 46.183594 L 84.839844 46.292969 L 85.308594 46.046875 L 85.960938 45.84375 L 84.171875 46.886719 C 85.230469 46.464844 86.300781 46.046875 87.371094 45.59375 C 87.839844 45.265625 88.320312 44.972656 88.800781 44.660156 L 89.097656 44.535156 L 88.894531 44.535156 L 89.347656 44.253906 L 90.105469 43.992188 C 89.625 44.300781 89.144531 44.613281 88.679688 44.941406 C 89.765625 44.457031 90.867188 43.960938 91.957031 43.382812 L 93.648438 42.121094 L 94.066406 41.96875 L 94.78125 41.578125 L 93.230469 42.730469 C 94.363281 42.167969 95.480469 41.578125 96.601562 40.96875 C 97.175781 40.457031 97.765625 39.957031 98.355469 39.414062 L 99.910156 38.449219 C 99.273438 39.007812 98.636719 39.570312 98.011719 40.160156 C 99.195312 39.523438 100.359375 38.839844 101.523438 38.136719 C 102.285156 37.3125 103.078125 36.582031 103.855469 35.726562 L 104.429688 35.304688 L 104.085938 35.492188 L 104.242188 35.320312 L 103.683594 35.710938 C 102.84375 36.15625 102.019531 36.621094 101.214844 37.109375 C 102.113281 36.410156 103.015625 35.742188 103.949219 35.085938 C 102.984375 35.800781 102.003906 36.472656 101.011719 37.140625 L 99.320312 38.246094 L 99.832031 37.933594 L 99.164062 38.355469 L 97.765625 39.304688 L 98.929688 38.605469 L 98.277344 39.007812 C 99.070312 38.589844 99.832031 38.167969 100.667969 37.765625 L 100.1875 38.199219 L 99.335938 38.605469 L 99.675781 38.324219 L 98.679688 38.929688 L 97.128906 39.710938 C 96.195312 40.269531 95.25 40.789062 94.285156 41.265625 L 96.117188 40.425781 L 95.605469 40.800781 L 94.8125 41.140625 L 95.234375 40.847656 L 94.066406 41.46875 L 93.152344 41.890625 C 92.21875 42.386719 91.273438 42.871094 90.308594 43.335938 L 91.691406 42.761719 L 91.226562 43.070312 L 90.496094 43.351562 L 90.867188 43.117188 L 89.90625 43.585938 L 89.175781 43.867188 C 88.242188 44.316406 87.296875 44.738281 86.347656 45.140625 L 87.527344 44.722656 L 87.078125 44.972656 L 86.410156 45.203125 L 86.597656 45.097656 L 86.144531 45.296875 L 85.214844 45.625 C 84.28125 46.015625 83.335938 46.386719 82.402344 46.730469 L 83.628906 46.339844 L 83.226562 46.542969 L 81.316406 47.136719 L 80.042969 47.570312 L 81.082031 47.167969 L 80.910156 47.167969 L 78.90625 47.867188 L 79.761719 47.570312 L 78.8125 47.898438 L 77.539062 48.347656 L 77.382812 48.347656 L 76.886719 48.503906 L 78.144531 48.070312 L 76.949219 48.457031 L 74.136719 49.328125 L 73.578125 49.46875 L 75.816406 48.800781 L 73.035156 49.59375 L 71.761719 49.9375 L 70.75 50.203125 L 71.25 50.078125 L 68.871094 50.746094 C 69.945312 50.792969 70.890625 50.558594 71.824219 50.308594 Z M 78.8125 48.210938 L 80.492188 47.726562 L 79.574219 48.054688 L 78.023438 48.457031 Z M 75.847656 49.175781 L 75.941406 49.175781 L 77.492188 48.785156 L 76.671875 49.066406 L 75.117188 49.421875 Z M 75.847656 49.175781 "/>
<path style=" stroke:none;fill-rule:nonzero;fill:rgb(86.27451%,9.803922%,25.490196%);fill-opacity:1;" d="M 70.207031 50.839844 C 69.261719 51.074219 68.3125 51.292969 67.351562 51.492188 C 65.921875 51.914062 64.492188 52.351562 63.0625 52.816406 L 65.984375 52.257812 C 67.382812 51.757812 68.808594 51.292969 70.207031 50.839844 Z M 70.207031 50.839844 "/>
<path style=" stroke:none;fill-rule:nonzero;fill:rgb(86.27451%,9.803922%,25.490196%);fill-opacity:1;" d="M 64.289062 52.847656 C 63.3125 53.035156 62.347656 53.207031 61.371094 53.363281 C 59.816406 53.84375 58.417969 54.34375 56.941406 54.917969 L 59.925781 54.480469 C 61.386719 53.90625 62.828125 53.363281 64.289062 52.847656 Z M 64.289062 52.847656 "/>
<path style=" stroke:none;fill-rule:nonzero;fill:rgb(86.27451%,9.803922%,25.490196%);fill-opacity:1;" d="M 83.519531 56.476562 C 81.96875 56.785156 80.414062 57.066406 78.859375 57.332031 C 77.820312 58.652344 76.808594 60.023438 75.753906 61.425781 L 80.722656 60.847656 C 81.75 59.355469 82.636719 57.890625 83.519531 56.476562 Z M 83.519531 56.476562 "/>
<path style=" stroke:none;fill-rule:nonzero;fill:rgb(86.27451%,9.803922%,25.490196%);fill-opacity:1;" d="M 69.882812 52.550781 C 70.953125 52.304688 72.042969 52.054688 73.113281 51.757812 C 74.433594 51.027344 75.769531 50.308594 77.105469 49.625 C 76.0625 49.953125 75.023438 50.25 74 50.542969 C 72.621094 51.199219 71.25 51.867188 69.882812 52.550781 Z M 69.882812 52.550781 "/>
<path style=" stroke:none;fill-rule:nonzero;fill:rgb(86.27451%,9.803922%,25.490196%);fill-opacity:1;" d="M 65.46875 53.5 C 66.507812 53.304688 67.542969 53.085938 68.578125 52.847656 L 72.726562 50.886719 C 71.714844 51.167969 70.691406 51.429688 69.617188 51.679688 C 68.28125 52.273438 66.867188 52.878906 65.46875 53.5 Z M 65.46875 53.5 "/>
<path style=" stroke:none;fill-rule:nonzero;fill:rgb(86.27451%,9.803922%,25.490196%);fill-opacity:1;" d="M 74.433594 51.398438 C 75.535156 51.121094 76.640625 50.792969 77.757812 50.464844 C 79.015625 49.671875 80.273438 48.910156 81.546875 48.132812 C 80.492188 48.503906 79.433594 48.878906 78.441406 49.222656 C 77.058594 49.9375 75.753906 50.652344 74.433594 51.398438 Z M 74.433594 51.398438 "/>
<path style=" stroke:none;fill-rule:nonzero;fill:rgb(86.27451%,9.803922%,25.490196%);fill-opacity:1;" d="M 61.136719 54.28125 C 62.160156 54.125 63.1875 53.9375 64.242188 53.75 C 65.671875 53.144531 67.101562 52.535156 68.53125 51.960938 L 65.53125 52.613281 C 64.042969 53.222656 62.597656 53.703125 61.136719 54.28125 Z M 61.136719 54.28125 "/>
<path style=" stroke:none;fill-rule:nonzero;fill:rgb(86.27451%,9.803922%,25.490196%);fill-opacity:1;" d="M 71.375 50.542969 C 69.976562 50.996094 68.5625 51.492188 67.148438 52.007812 C 68.140625 51.773438 69.136719 51.554688 70.113281 51.308594 C 71.511719 50.761719 72.878906 50.25 74.261719 49.75 Z M 71.375 50.542969 "/>
<path style=" stroke:none;fill-rule:nonzero;fill:rgb(86.27451%,9.803922%,25.490196%);fill-opacity:1;" d="M 79.109375 50.109375 C 80.242188 49.765625 81.390625 49.375 82.527344 48.988281 C 83.707031 48.132812 84.902344 47.289062 86.097656 46.480469 C 85.011719 46.917969 83.941406 47.335938 82.851562 47.726562 C 81.59375 48.425781 80.414062 49.238281 79.109375 50.109375 Z M 79.109375 50.109375 "/>
<path style=" stroke:none;fill-rule:nonzero;fill:rgb(86.27451%,9.803922%,25.490196%);fill-opacity:1;" d="M 54.953125 56.863281 L 58.0625 56.507812 C 59.519531 55.804688 60.980469 55.136719 62.441406 54.480469 C 61.402344 54.652344 60.375 54.824219 59.335938 54.964844 C 57.9375 55.570312 56.445312 56.210938 54.953125 56.863281 Z M 54.953125 56.863281 "/>
<path style=" stroke:none;fill-rule:nonzero;fill:rgb(86.27451%,9.803922%,25.490196%);fill-opacity:1;" d="M 77.152344 57.640625 L 72.847656 58.34375 C 71.667969 59.542969 70.535156 60.785156 69.398438 62.078125 C 70.953125 61.9375 72.507812 61.796875 74.058594 61.628906 C 75.023438 60.257812 76.0625 58.933594 77.152344 57.640625 Z M 77.152344 57.640625 "/>
<path style=" stroke:none;fill-rule:nonzero;fill:rgb(86.27451%,9.803922%,25.490196%);fill-opacity:1;" d="M 87.433594 51.058594 L 83.273438 52.226562 C 82.199219 53.394531 81.160156 54.589844 80.164062 55.835938 C 81.71875 55.539062 83.132812 55.230469 84.640625 54.886719 C 85.539062 53.5625 86.488281 52.289062 87.433594 51.058594 Z M 87.433594 51.058594 "/>
<path style=" stroke:none;fill-rule:nonzero;fill:rgb(86.27451%,9.803922%,25.490196%);fill-opacity:1;" d="M 72.769531 63.277344 C 71.21875 63.417969 69.664062 63.527344 68.109375 63.621094 C 66.960938 64.988281 65.828125 66.40625 64.710938 67.871094 L 69.773438 67.871094 C 70.707031 66.25 71.730469 64.757812 72.769531 63.277344 Z M 72.769531 63.277344 "/>
<path style=" stroke:none;fill-rule:nonzero;fill:rgb(86.27451%,9.803922%,25.490196%);fill-opacity:1;" d="M 95.621094 42.058594 C 94.457031 42.667969 93.308594 43.226562 92.15625 43.757812 C 91.070312 44.660156 89.984375 45.609375 88.925781 46.574219 C 90.152344 46.078125 91.394531 45.578125 92.625 45.019531 C 93.601562 44.023438 94.597656 43.027344 95.621094 42.058594 Z M 95.621094 42.058594 "/>
<path style=" stroke:none;fill-rule:nonzero;fill:rgb(86.27451%,9.803922%,25.490196%);fill-opacity:1;" d="M 91.472656 46.261719 C 90.199219 46.792969 88.941406 47.273438 87.683594 47.726562 C 86.597656 48.753906 85.539062 49.828125 84.5 50.917969 L 88.554688 49.65625 C 89.515625 48.550781 90.480469 47.367188 91.472656 46.261719 Z M 91.472656 46.261719 "/>
<path style=" stroke:none;fill-rule:nonzero;fill:rgb(86.27451%,9.803922%,25.490196%);fill-opacity:1;" d="M 83.925781 48.441406 C 85.121094 48.023438 86.285156 47.601562 87.464844 47.136719 C 88.570312 46.199219 89.671875 45.28125 90.789062 44.410156 L 87.433594 45.859375 C 86.253906 46.699219 85.074219 47.554688 83.925781 48.441406 Z M 83.925781 48.441406 "/>
<path style=" stroke:none;fill-rule:nonzero;fill:rgb(86.27451%,9.803922%,25.490196%);fill-opacity:1;" d="M 64.148438 77.148438 C 62.332031 76.976562 60.5625 76.820312 58.835938 76.632812 C 57.828125 78.191406 56.832031 79.933594 55.886719 81.644531 L 61.601562 82.515625 C 62.410156 80.664062 63.328125 78.859375 64.148438 77.148438 Z M 64.148438 77.148438 "/>
<path style=" stroke:none;fill-rule:nonzero;fill:rgb(86.27451%,9.803922%,25.490196%);fill-opacity:1;" d="M 56.148438 76.382812 L 51.335938 75.886719 C 50.183594 77.347656 49.035156 78.84375 47.917969 80.398438 L 53.058594 81.210938 C 54.007812 79.542969 55.09375 77.941406 56.148438 76.382812 Z M 56.148438 76.382812 "/>
<path style=" stroke:none;fill-rule:nonzero;fill:rgb(86.27451%,9.803922%,25.490196%);fill-opacity:1;" d="M 48.941406 75.542969 L 44.40625 75.015625 C 43.085938 76.367188 41.78125 77.769531 40.476562 79.21875 L 45.324219 80.042969 C 46.519531 78.5 47.792969 76.992188 48.941406 75.542969 Z M 48.941406 75.542969 "/>
<path style=" stroke:none;fill-rule:nonzero;fill:rgb(86.27451%,9.803922%,25.490196%);fill-opacity:1;" d="M 66.214844 63.761719 L 61.820312 63.992188 C 60.515625 65.238281 59.257812 66.53125 58 67.855469 C 59.550781 67.855469 61.105469 67.855469 62.660156 67.855469 C 63.839844 66.453125 65.019531 65.082031 66.214844 63.761719 Z M 66.214844 63.761719 "/>
<path style=" stroke:none;fill-rule:nonzero;fill:rgb(86.27451%,9.803922%,25.490196%);fill-opacity:1;" d="M 42.386719 74.65625 L 37.960938 74.066406 C 36.40625 75.339844 34.976562 76.695312 33.515625 78.066406 L 38.175781 78.9375 C 39.574219 77.457031 40.972656 76.042969 42.386719 74.65625 Z M 42.386719 74.65625 "/>
<path style=" stroke:none;fill-rule:nonzero;fill:rgb(86.27451%,9.803922%,25.490196%);fill-opacity:1;" d="M 76.4375 69.675781 C 74.480469 69.675781 72.585938 69.675781 70.734375 69.675781 C 69.773438 71.386719 68.855469 73.144531 67.972656 74.96875 L 74.183594 75.339844 C 74.867188 73.457031 75.628906 71.511719 76.4375 69.675781 Z M 76.4375 69.675781 "/>
<path style=" stroke:none;fill-rule:nonzero;fill:rgb(86.27451%,9.803922%,25.490196%);fill-opacity:1;" d="M 68.546875 69.675781 L 63.34375 69.675781 C 62.207031 71.230469 61.105469 72.789062 60.019531 74.453125 L 65.609375 74.859375 C 66.550781 73.054688 67.53125 71.324219 68.546875 69.675781 Z M 68.546875 69.675781 "/>
<path style=" stroke:none;fill-rule:nonzero;fill:rgb(86.27451%,9.803922%,25.490196%);fill-opacity:1;" d="M 48.570312 59.757812 L 51.910156 59.621094 C 53.460938 58.839844 54.90625 58.0625 56.398438 57.332031 C 55.3125 57.457031 54.238281 57.550781 53.183594 57.625 C 51.644531 58.328125 50.105469 59.027344 48.570312 59.757812 Z M 48.570312 59.757812 "/>
<path style=" stroke:none;fill-rule:nonzero;fill:rgb(86.27451%,9.803922%,25.490196%);fill-opacity:1;" d="M 42.015625 63.042969 C 43.164062 63.042969 44.328125 63.121094 45.507812 63.121094 C 47.042969 62.25 48.59375 61.394531 50.167969 60.554688 L 46.796875 60.648438 C 45.167969 61.425781 43.582031 62.21875 42.015625 63.042969 Z M 42.015625 63.042969 "/>
<path style=" stroke:none;fill-rule:nonzero;fill:rgb(86.27451%,9.803922%,25.490196%);fill-opacity:1;" d="M 35.972656 73.832031 L 31.964844 73.222656 C 30.410156 74.375 28.855469 75.542969 27.304688 76.773438 L 31.527344 77.628906 C 33.035156 76.320312 34.496094 75.015625 35.972656 73.832031 Z M 35.972656 73.832031 "/>
<path style=" stroke:none;fill-rule:nonzero;fill:rgb(86.27451%,9.803922%,25.490196%);fill-opacity:1;" d="M 79.871094 62.65625 L 74.742188 63.121094 C 73.75 64.679688 72.785156 66.234375 71.839844 67.792969 L 77.371094 67.652344 C 78.160156 65.921875 79 64.257812 79.871094 62.65625 Z M 79.871094 62.65625 "/>
<path style=" stroke:none;fill-rule:nonzero;fill:rgb(86.27451%,9.803922%,25.490196%);fill-opacity:1;" d="M 21.992188 75.339844 C 23.109375 75.605469 24.257812 75.871094 25.441406 76.121094 C 26.820312 75.078125 28.1875 74.066406 29.570312 73.007812 L 26.261719 72.429688 C 24.832031 73.457031 23.40625 74.375 21.992188 75.339844 Z M 21.992188 75.339844 "/>
<path style=" stroke:none;fill-rule:nonzero;fill:rgb(86.27451%,9.803922%,25.490196%);fill-opacity:1;" d="M 28.46875 70.859375 L 32.242188 71.449219 C 33.796875 70.375 35.351562 69.316406 36.902344 68.335938 L 33.300781 67.945312 C 31.714844 68.867188 30.101562 69.832031 28.46875 70.859375 Z M 28.46875 70.859375 "/>
<path style=" stroke:none;fill-rule:nonzero;fill:rgb(86.27451%,9.803922%,25.490196%);fill-opacity:1;" d="M 35.257812 66.75 L 38.953125 67.074219 C 40.507812 66.078125 42.0625 65.113281 43.613281 64.179688 C 42.417969 64.179688 41.253906 64.179688 40.089844 64.039062 C 38.503906 64.910156 36.894531 65.816406 35.257812 66.75 Z M 35.257812 66.75 "/>
<path style=" stroke:none;fill-rule:nonzero;fill:rgb(86.27451%,9.803922%,25.490196%);fill-opacity:1;" d="M 76.140625 54.015625 C 74.882812 54.3125 73.640625 54.574219 72.398438 54.839844 C 71.125 55.820312 69.851562 56.832031 68.59375 57.953125 C 69.898438 57.765625 71.21875 57.550781 72.570312 57.332031 C 73.734375 56.148438 74.945312 55.058594 76.140625 54.015625 Z M 76.140625 54.015625 "/>
<path style=" stroke:none;fill-rule:nonzero;fill:rgb(86.27451%,9.803922%,25.490196%);fill-opacity:1;" d="M 71.171875 58.578125 L 67.117188 59.136719 C 65.828125 60.242188 64.554688 61.394531 63.296875 62.5625 L 67.597656 62.25 C 68.761719 61.003906 69.960938 59.757812 71.171875 58.578125 Z M 71.171875 58.578125 "/>
<path style=" stroke:none;fill-rule:nonzero;fill:rgb(86.27451%,9.803922%,25.490196%);fill-opacity:1;" d="M 65.515625 59.324219 C 64.226562 59.480469 62.9375 59.632812 61.664062 59.757812 C 60.28125 60.769531 58.914062 61.8125 57.5625 62.871094 L 61.617188 62.65625 C 62.90625 61.535156 64.210938 60.414062 65.515625 59.324219 Z M 65.515625 59.324219 "/>
<path style=" stroke:none;fill-rule:nonzero;fill:rgb(86.27451%,9.803922%,25.490196%);fill-opacity:1;" d="M 86.191406 48.269531 C 84.980469 48.707031 83.769531 49.128906 82.574219 49.5 C 81.375 50.464844 80.210938 51.429688 79.0625 52.441406 L 82.898438 51.382812 C 83.972656 50.308594 85.074219 49.28125 86.191406 48.269531 Z M 86.191406 48.269531 "/>
<path style=" stroke:none;fill-rule:nonzero;fill:rgb(86.27451%,9.803922%,25.490196%);fill-opacity:1;" d="M 157.710938 20.6875 L 159.03125 20.6875 C 159.324219 20.207031 159.621094 19.691406 159.882812 19.132812 L 158.59375 19.132812 C 158.316406 19.707031 158.082031 20.207031 157.710938 20.6875 Z M 157.710938 20.6875 "/>
<path style=" stroke:none;fill-rule:nonzero;fill:rgb(86.27451%,9.803922%,25.490196%);fill-opacity:1;" d="M 60.09375 64.117188 L 55.949219 64.257812 C 54.550781 65.410156 53.167969 66.578125 51.800781 67.808594 L 56.179688 67.902344 C 57.476562 66.570312 58.78125 65.3125 60.09375 64.117188 Z M 60.09375 64.117188 "/>
<path style=" stroke:none;fill-rule:nonzero;fill:rgb(86.27451%,9.803922%,25.490196%);fill-opacity:1;" d="M 81.640625 52.660156 C 80.320312 53.003906 79 53.347656 77.695312 53.65625 C 76.515625 54.730469 75.351562 55.835938 74.199219 56.957031 C 75.582031 56.722656 76.980469 56.460938 78.394531 56.195312 C 79.449219 54.964844 80.539062 53.8125 81.640625 52.660156 Z M 81.640625 52.660156 "/>
<path style=" stroke:none;fill-rule:nonzero;fill:rgb(86.27451%,9.803922%,25.490196%);fill-opacity:1;" d="M 58.167969 59.152344 C 59.351562 59.027344 60.546875 58.917969 61.773438 58.761719 C 63.140625 57.84375 64.523438 56.925781 65.90625 56.054688 C 64.742188 56.257812 63.589844 56.429688 62.441406 56.597656 C 60.996094 57.425781 59.582031 58.28125 58.167969 59.152344 Z M 58.167969 59.152344 "/>
<path style=" stroke:none;fill-rule:nonzero;fill:rgb(86.27451%,9.803922%,25.490196%);fill-opacity:1;" d="M 147.101562 38.261719 C 147.597656 37.871094 148.078125 37.484375 148.546875 37.078125 L 147.164062 36.96875 C 146.695312 37.375 146.214844 37.765625 145.734375 38.152344 Z M 147.101562 38.261719 "/>
<path style=" stroke:none;fill-rule:nonzero;fill:rgb(86.27451%,9.803922%,25.490196%);fill-opacity:1;" d="M 70.90625 55.136719 L 67.320312 55.820312 C 65.953125 56.707031 64.617188 57.640625 63.265625 58.605469 L 67.039062 58.109375 C 68.3125 57.082031 69.539062 56.101562 70.90625 55.136719 Z M 70.90625 55.136719 "/>
<path style=" stroke:none;fill-rule:nonzero;fill:rgb(86.27451%,9.803922%,25.490196%);fill-opacity:1;" d="M 52.125 63.074219 C 53.386719 63.074219 54.675781 63.074219 55.964844 62.964844 C 57.363281 61.90625 58.746094 60.894531 60.15625 59.851562 C 58.914062 59.976562 57.6875 60.070312 56.476562 60.164062 C 55.015625 61.128906 53.570312 62.09375 52.125 63.074219 Z M 52.125 63.074219 "/>
<path style=" stroke:none;fill-rule:nonzero;fill:rgb(86.27451%,9.803922%,25.490196%);fill-opacity:1;" d="M 45.976562 67.511719 C 47.328125 67.511719 48.695312 67.636719 50.09375 67.683594 C 51.488281 66.5 52.902344 65.347656 54.332031 64.226562 L 50.402344 64.226562 C 48.910156 65.316406 47.4375 66.390625 45.976562 67.511719 Z M 45.976562 67.511719 "/>
<path style=" stroke:none;fill-rule:nonzero;fill:rgb(86.27451%,9.803922%,25.490196%);fill-opacity:1;" d="M 157.773438 16.609375 C 158.097656 16.003906 158.378906 15.394531 158.65625 14.757812 L 157.105469 14.757812 C 156.824219 15.394531 156.515625 16.019531 156.203125 16.609375 Z M 157.773438 16.609375 "/>
<path style=" stroke:none;fill-rule:nonzero;fill:rgb(86.27451%,9.803922%,25.490196%);fill-opacity:1;" d="M 61.324219 69.582031 L 56.523438 69.457031 C 55.25 70.875 53.992188 72.320312 52.734375 73.832031 L 57.875 74.25 C 58.992188 72.648438 60.21875 71.089844 61.324219 69.582031 Z M 61.324219 69.582031 "/>
<path style=" stroke:none;fill-rule:nonzero;fill:rgb(86.27451%,9.803922%,25.490196%);fill-opacity:1;" d="M 40.476562 67.230469 L 44.34375 67.480469 C 45.847656 66.441406 47.351562 65.40625 48.863281 64.367188 L 45.152344 64.367188 C 43.582031 65.175781 42.015625 66.15625 40.476562 67.230469 Z M 40.476562 67.230469 "/>
<path style=" stroke:none;fill-rule:nonzero;fill:rgb(86.27451%,9.803922%,25.490196%);fill-opacity:1;" d="M 46.9375 63.136719 L 50.605469 63.136719 C 52.082031 62.171875 53.554688 61.222656 55.03125 60.320312 L 51.503906 60.507812 C 49.984375 61.347656 48.460938 62.234375 46.9375 63.136719 Z M 46.9375 63.136719 "/>
<path style=" stroke:none;fill-rule:nonzero;fill:rgb(86.27451%,9.803922%,25.490196%);fill-opacity:1;" d="M 33.8125 71.730469 L 37.960938 72.289062 C 39.511719 71.058594 41.066406 69.878906 42.542969 68.742188 L 38.582031 68.398438 C 37.027344 69.472656 35.367188 70.59375 33.8125 71.730469 Z M 33.8125 71.730469 "/>
<path style=" stroke:none;fill-rule:nonzero;fill:rgb(86.27451%,9.803922%,25.490196%);fill-opacity:1;" d="M 48.429688 69.113281 L 44.234375 68.851562 C 42.683594 70.03125 41.222656 71.230469 39.730469 72.492188 C 41.175781 72.679688 42.652344 72.835938 44.15625 72.992188 C 45.554688 71.667969 47 70.34375 48.429688 69.113281 Z M 48.429688 69.113281 "/>
<path style=" stroke:none;fill-rule:nonzero;fill:rgb(86.27451%,9.803922%,25.490196%);fill-opacity:1;" d="M 54.660156 69.394531 L 50.183594 69.207031 C 48.773438 70.484375 47.390625 71.824219 46.007812 73.191406 L 50.667969 73.644531 C 52.011719 72.203125 53.34375 70.785156 54.660156 69.394531 Z M 54.660156 69.394531 "/>
<path style=" stroke:none;fill-rule:nonzero;fill:rgb(86.27451%,9.803922%,25.490196%);fill-opacity:1;" d="M 53.261719 59.542969 L 56.742188 59.277344 C 58.167969 58.421875 59.628906 57.59375 61.058594 56.785156 L 57.734375 57.191406 C 56.242188 57.890625 54.753906 58.730469 53.261719 59.542969 Z M 53.261719 59.542969 "/>
<path style=" stroke:none;fill-rule:nonzero;fill:rgb(86.27451%,9.803922%,25.490196%);fill-opacity:1;" d="M 64.085938 55.648438 C 65.207031 55.480469 66.339844 55.277344 67.488281 55.058594 C 68.839844 54.234375 70.191406 53.421875 71.542969 52.644531 C 70.507812 52.914062 69.421875 53.164062 68.28125 53.394531 C 66.867188 54.125 65.46875 54.886719 64.085938 55.648438 Z M 64.085938 55.648438 "/>
<path style=" stroke:none;fill-rule:nonzero;fill:rgb(86.27451%,9.803922%,25.490196%);fill-opacity:1;" d="M 160.660156 9.945312 L 159.109375 9.945312 C 158.859375 10.679688 158.59375 11.378906 158.300781 12.0625 C 158.828125 12.0625 159.371094 12.0625 159.855469 11.96875 C 160.144531 11.335938 160.414062 10.664062 160.660156 9.945312 Z M 160.660156 9.945312 "/>
<path style=" stroke:none;fill-rule:nonzero;fill:rgb(86.27451%,9.803922%,25.490196%);fill-opacity:1;" d="M 59.441406 56.335938 C 60.53125 56.210938 61.632812 56.039062 62.738281 55.867188 C 64.148438 55.105469 65.546875 54.3125 66.976562 53.65625 L 63.871094 54.265625 C 62.347656 54.933594 60.886719 55.617188 59.441406 56.335938 Z M 59.441406 56.335938 "/>
<path style=" stroke:none;fill-rule:nonzero;fill:rgb(86.27451%,9.803922%,25.490196%);fill-opacity:1;" d="M 114.835938 37.65625 C 115.675781 37.0625 116.484375 36.457031 117.292969 35.832031 C 116.1875 36.050781 115.101562 36.253906 113.996094 36.503906 C 113.191406 37.109375 112.367188 37.6875 111.527344 38.261719 Z M 114.835938 37.65625 "/>
<path style=" stroke:none;fill-rule:nonzero;fill:rgb(86.27451%,9.803922%,25.490196%);fill-opacity:1;" d="M 68.886719 54.777344 L 72.414062 54.03125 C 73.6875 53.144531 74.976562 52.257812 76.25 51.398438 C 75.132812 51.730469 74.015625 52.027344 72.894531 52.289062 C 71.542969 53.113281 70.207031 53.9375 68.886719 54.777344 Z M 68.886719 54.777344 "/>
<path style=" stroke:none;fill-rule:nonzero;fill:rgb(86.27451%,9.803922%,25.490196%);fill-opacity:1;" d="M 73.875 53.71875 C 75.101562 53.4375 76.3125 53.160156 77.539062 52.832031 C 78.71875 51.851562 79.933594 50.902344 81.128906 49.984375 L 77.648438 51.042969 C 76.375 51.898438 75.117188 52.800781 73.875 53.71875 Z M 73.875 53.71875 "/>
<path style=" stroke:none;fill-rule:nonzero;fill:rgb(86.27451%,9.803922%,25.490196%);fill-opacity:1;" d="M 141.726562 35.039062 L 143.527344 35.039062 C 144.085938 34.558594 144.628906 34.074219 145.082031 33.484375 L 143.277344 33.484375 C 142.8125 34.074219 142.285156 34.542969 141.726562 35.039062 Z M 141.726562 35.039062 "/>
<path style=" stroke:none;fill-rule:nonzero;fill:rgb(86.27451%,9.803922%,25.490196%);fill-opacity:1;" d="M 119.339844 36.921875 C 120.164062 36.300781 120.894531 35.664062 121.75 35.023438 L 118.550781 35.554688 C 117.757812 36.191406 116.996094 36.816406 116.109375 37.40625 C 117.183594 37.234375 118.269531 37.0625 119.339844 36.921875 Z M 119.339844 36.921875 "/>
<path style=" stroke:none;fill-rule:nonzero;fill:rgb(86.27451%,9.803922%,25.490196%);fill-opacity:1;" d="M 113.75 34.152344 C 114.851562 33.839844 115.957031 33.53125 117.042969 33.25 C 117.851562 32.566406 118.597656 31.847656 119.371094 31.117188 C 118.285156 31.414062 117.214844 31.738281 116.125 32.082031 C 115.347656 32.78125 114.589844 33.484375 113.75 34.152344 Z M 113.75 34.152344 "/>
<path style=" stroke:none;fill-rule:nonzero;fill:rgb(86.27451%,9.803922%,25.490196%);fill-opacity:1;" d="M 118.253906 35.023438 C 119.0625 34.371094 119.808594 33.703125 120.617188 33.015625 L 117.367188 33.761719 C 116.578125 34.433594 115.816406 35.085938 114.976562 35.710938 Z M 118.253906 35.023438 "/>
<path style=" stroke:none;fill-rule:nonzero;fill:rgb(86.27451%,9.803922%,25.490196%);fill-opacity:1;" d="M 120.226562 38.898438 C 121.066406 38.324219 121.90625 37.734375 122.710938 37.109375 C 121.675781 37.214844 120.640625 37.339844 119.605469 37.484375 C 118.78125 38.074219 117.945312 38.667969 117.105469 39.226562 Z M 120.226562 38.898438 "/>
<path style=" stroke:none;fill-rule:nonzero;fill:rgb(86.27451%,9.803922%,25.490196%);fill-opacity:1;" d="M 127.015625 36.722656 C 126.003906 36.722656 124.996094 36.890625 123.984375 36.96875 C 123.179688 37.609375 122.339844 38.199219 121.5 38.792969 L 124.515625 38.558594 C 125.304688 37.964844 126.128906 37.34375 127.015625 36.722656 Z M 127.015625 36.722656 "/>
<path style=" stroke:none;fill-rule:nonzero;fill:rgb(86.27451%,9.803922%,25.490196%);fill-opacity:1;" d="M 130.867188 36.503906 L 128.132812 36.675781 C 127.371094 37.265625 126.582031 37.84375 125.820312 38.417969 L 128.554688 38.261719 C 129.34375 37.65625 130.121094 37.109375 130.867188 36.503906 Z M 130.867188 36.503906 "/>
<path style=" stroke:none;fill-rule:nonzero;fill:rgb(86.27451%,9.803922%,25.490196%);fill-opacity:1;" d="M 136.476562 24.5 C 135.855469 25.34375 135.21875 26.152344 134.550781 26.945312 C 135.480469 26.789062 136.429688 26.632812 137.359375 26.507812 C 138.011719 25.699219 138.648438 24.953125 139.269531 24.050781 Z M 136.476562 24.5 "/>
<path style=" stroke:none;fill-rule:nonzero;fill:rgb(86.27451%,9.803922%,25.490196%);fill-opacity:1;" d="M 140.296875 27.257812 L 137.734375 27.535156 C 137.144531 28.253906 136.507812 28.96875 135.871094 29.652344 C 136.722656 29.546875 137.578125 29.46875 138.433594 29.390625 C 139.070312 28.6875 139.691406 27.972656 140.296875 27.257812 Z M 140.296875 27.257812 "/>
<path style=" stroke:none;fill-rule:nonzero;fill:rgb(86.27451%,9.803922%,25.490196%);fill-opacity:1;" d="M 117.074219 31.195312 C 118.144531 30.851562 119.21875 30.527344 120.304688 30.214844 C 121.066406 29.453125 121.859375 28.65625 122.542969 27.847656 L 119.433594 28.890625 C 118.628906 29.683594 117.851562 30.449219 117.074219 31.195312 Z M 117.074219 31.195312 "/>
<path style=" stroke:none;fill-rule:nonzero;fill:rgb(86.27451%,9.803922%,25.490196%);fill-opacity:1;" d="M 130.230469 27.785156 L 133.335938 27.210938 C 134.035156 26.386719 134.71875 25.527344 135.371094 24.671875 C 134.378906 24.859375 133.367188 25.0625 132.375 25.28125 C 131.675781 26.136719 130.945312 26.960938 130.230469 27.785156 Z M 130.230469 27.785156 "/>
<path style=" stroke:none;fill-rule:nonzero;fill:rgb(86.27451%,9.803922%,25.490196%);fill-opacity:1;" d="M 121.546875 29.871094 C 122.582031 29.582031 123.617188 29.300781 124.652344 29.03125 C 125.398438 28.253906 126.113281 27.445312 126.796875 26.601562 L 123.691406 27.488281 C 123.039062 28.316406 122.355469 29.09375 121.546875 29.871094 Z M 121.546875 29.871094 "/>
<path style=" stroke:none;fill-rule:nonzero;fill:rgb(86.27451%,9.803922%,25.490196%);fill-opacity:1;" d="M 125.929688 28.71875 L 129.035156 28.035156 C 129.75 27.210938 130.449219 26.386719 131.117188 25.527344 C 130.105469 25.761719 129.082031 26.011719 128.007812 26.277344 C 127.371094 27.117188 126.65625 27.925781 125.929688 28.71875 Z M 125.929688 28.71875 "/>
<path style=" stroke:none;fill-rule:nonzero;fill:rgb(86.27451%,9.803922%,25.490196%);fill-opacity:1;" d="M 134.671875 36.410156 L 132.203125 36.410156 C 131.503906 36.984375 130.789062 37.53125 130.042969 38.074219 L 132.515625 38.074219 C 133.230469 37.546875 133.957031 36.96875 134.671875 36.410156 Z M 134.671875 36.410156 "/>
<path style=" stroke:none;fill-rule:nonzero;fill:rgb(86.27451%,9.803922%,25.490196%);fill-opacity:1;" d="M 87.667969 61.84375 L 82.03125 62.453125 C 81.222656 64.007812 80.476562 65.785156 79.714844 67.558594 L 85.929688 67.324219 C 86.425781 65.441406 87.015625 63.605469 87.667969 61.84375 Z M 87.667969 61.84375 "/>
<path style=" stroke:none;fill-rule:nonzero;fill:rgb(86.27451%,9.803922%,25.490196%);fill-opacity:1;" d="M 120.289062 27.925781 C 121.328125 27.535156 122.371094 27.195312 123.394531 26.851562 C 124.125 25.996094 124.839844 25.125 125.523438 24.238281 L 122.417969 25.359375 C 121.78125 26.230469 121.050781 27.085938 120.289062 27.925781 Z M 120.289062 27.925781 "/>
<path style=" stroke:none;fill-rule:nonzero;fill:rgb(86.27451%,9.803922%,25.490196%);fill-opacity:1;" d="M 112.523438 32.765625 C 113.609375 32.363281 114.710938 31.972656 115.800781 31.617188 C 116.609375 30.867188 117.351562 30.058594 118.144531 29.34375 C 117.074219 29.714844 116 30.136719 114.929688 30.558594 C 114.152344 31.304688 113.34375 32.050781 112.523438 32.765625 Z M 112.523438 32.765625 "/>
<path style=" stroke:none;fill-rule:nonzero;fill:rgb(86.27451%,9.803922%,25.490196%);fill-opacity:1;" d="M 113.6875 36.003906 C 114.496094 35.367188 115.242188 34.730469 116.09375 34.074219 L 112.769531 34.945312 C 111.964844 35.601562 111.21875 36.222656 110.316406 36.816406 Z M 113.6875 36.003906 "/>
<path style=" stroke:none;fill-rule:nonzero;fill:rgb(86.27451%,9.803922%,25.490196%);fill-opacity:1;" d="M 109.074219 35.601562 C 110.191406 35.226562 111.324219 34.882812 112.445312 34.527344 C 113.269531 33.855469 113.996094 33.1875 114.851562 32.488281 C 113.75 32.84375 112.632812 33.21875 111.542969 33.609375 C 110.734375 34.277344 109.929688 34.945312 109.074219 35.601562 Z M 109.074219 35.601562 "/>
<path style=" stroke:none;fill-rule:nonzero;fill:rgb(86.27451%,9.803922%,25.490196%);fill-opacity:1;" d="M 137.980469 33.5 L 135.574219 33.640625 C 134.921875 34.246094 134.253906 34.820312 133.570312 35.398438 L 135.960938 35.304688 C 136.660156 34.714844 137.328125 34.121094 137.980469 33.5 Z M 137.980469 33.5 "/>
<path style=" stroke:none;fill-rule:nonzero;fill:rgb(86.27451%,9.803922%,25.490196%);fill-opacity:1;" d="M 124.636719 26.460938 L 127.746094 25.558594 C 128.460938 24.6875 129.128906 23.800781 129.796875 22.882812 C 128.785156 23.179688 127.777344 23.503906 126.6875 23.832031 C 126.050781 24.734375 125.351562 25.621094 124.636719 26.460938 Z M 124.636719 26.460938 "/>
<path style=" stroke:none;fill-rule:nonzero;fill:rgb(86.27451%,9.803922%,25.490196%);fill-opacity:1;" d="M 141.105469 30.386719 C 140.328125 30.386719 139.550781 30.480469 138.773438 30.558594 C 138.167969 31.179688 137.5625 31.785156 136.925781 32.394531 L 139.269531 32.253906 C 139.894531 31.644531 140.5 31.023438 141.105469 30.386719 Z M 141.105469 30.386719 "/>
<path style=" stroke:none;fill-rule:nonzero;fill:rgb(86.27451%,9.803922%,25.490196%);fill-opacity:1;" d="M 138.914062 26.167969 L 141.351562 25.871094 C 141.914062 25.15625 142.472656 24.40625 143 23.660156 C 142.207031 23.753906 141.445312 23.863281 140.589844 23.988281 C 140.046875 24.71875 139.441406 25.464844 138.914062 26.167969 Z M 138.914062 26.167969 "/>
<path style=" stroke:none;fill-rule:nonzero;fill:rgb(86.27451%,9.803922%,25.490196%);fill-opacity:1;" d="M 133.105469 24.207031 L 136.085938 23.582031 C 136.753906 22.679688 137.390625 21.761719 137.996094 20.796875 C 137.003906 21 136.039062 21.21875 135.0625 21.449219 C 134.441406 22.40625 133.789062 23.324219 133.105469 24.207031 Z M 133.105469 24.207031 "/>
<path style=" stroke:none;fill-rule:nonzero;fill:rgb(86.27451%,9.803922%,25.490196%);fill-opacity:1;" d="M 128.910156 25.203125 C 129.921875 24.921875 130.945312 24.671875 132.015625 24.4375 C 132.699219 23.535156 133.351562 22.632812 133.988281 21.699219 C 132.996094 21.949219 131.984375 22.214844 131.007812 22.492188 C 130.277344 23.472656 129.609375 24.363281 128.910156 25.203125 Z M 128.910156 25.203125 "/>
<path style=" stroke:none;fill-rule:nonzero;fill:rgb(86.27451%,9.803922%,25.490196%);fill-opacity:1;" d="M 139.164062 20.65625 C 138.601562 21.542969 138.011719 22.398438 137.421875 23.242188 L 140.125 22.773438 C 140.714844 21.933594 141.273438 21.0625 141.835938 20.160156 C 140.996094 20.3125 140.046875 20.53125 139.164062 20.65625 Z M 139.164062 20.65625 "/>
<path style=" stroke:none;fill-rule:nonzero;fill:rgb(86.27451%,9.803922%,25.490196%);fill-opacity:1;" d="M 115.894531 29.605469 C 116.949219 29.171875 118.003906 28.75 119 28.363281 C 119.777344 27.535156 120.554688 26.695312 121.253906 25.824219 C 120.210938 26.246094 119.1875 26.679688 118.144531 27.148438 C 117.476562 27.988281 116.683594 28.8125 115.894531 29.605469 Z M 115.894531 29.605469 "/>
<path style=" stroke:none;fill-rule:nonzero;fill:rgb(86.27451%,9.803922%,25.490196%);fill-opacity:1;" d="M 155.117188 14.851562 L 153.34375 15.007812 C 153.035156 15.707031 152.691406 16.40625 152.320312 17.078125 C 152.910156 17.078125 153.515625 16.984375 154.105469 16.9375 C 154.449219 16.25 154.804688 15.550781 155.117188 14.851562 Z M 155.117188 14.851562 "/>
<path style=" stroke:none;fill-rule:nonzero;fill:rgb(86.27451%,9.803922%,25.490196%);fill-opacity:1;" d="M 147.039062 33.703125 C 146.574219 34.152344 146.105469 34.589844 145.625 35.007812 L 147.179688 35.007812 C 147.660156 34.589844 148.125 34.136719 148.589844 33.703125 Z M 147.039062 33.703125 "/>
<path style=" stroke:none;fill-rule:nonzero;fill:rgb(86.27451%,9.803922%,25.490196%);fill-opacity:1;" d="M 141.121094 32.066406 L 143.09375 32.066406 C 143.652344 31.523438 144.195312 30.960938 144.644531 30.402344 L 142.65625 30.402344 C 142.207031 30.976562 141.664062 31.523438 141.121094 32.066406 Z M 141.121094 32.066406 "/>
<path style=" stroke:none;fill-rule:nonzero;fill:rgb(86.27451%,9.803922%,25.490196%);fill-opacity:1;" d="M 146.695312 23.394531 L 144.613281 23.597656 C 144.132812 24.269531 143.667969 24.921875 143.15625 25.574219 C 143.839844 25.574219 144.554688 25.449219 145.25 25.390625 C 145.75 24.734375 146.230469 24.082031 146.695312 23.394531 Z M 146.695312 23.394531 "/>
<path style=" stroke:none;fill-rule:nonzero;fill:rgb(86.27451%,9.803922%,25.490196%);fill-opacity:1;" d="M 133.382812 30.929688 L 130.542969 31.304688 C 129.828125 32.003906 129.113281 32.6875 128.367188 33.359375 C 129.328125 33.234375 130.292969 33.109375 131.226562 33.03125 C 131.96875 32.347656 132.699219 31.644531 133.382812 30.929688 Z M 133.382812 30.929688 "/>
<path style=" stroke:none;fill-rule:nonzero;fill:rgb(86.27451%,9.803922%,25.490196%);fill-opacity:1;" d="M 123.910156 34.027344 L 127.015625 33.5625 C 127.808594 32.875 128.570312 32.160156 129.296875 31.429688 L 126.191406 31.925781 C 125.460938 32.644531 124.730469 33.34375 123.910156 34.027344 Z M 123.910156 34.027344 "/>
<path style=" stroke:none;fill-rule:nonzero;fill:rgb(86.27451%,9.803922%,25.490196%);fill-opacity:1;" d="M 97.066406 43.882812 C 95.714844 44.472656 94.378906 45.050781 93.042969 45.59375 C 92.101562 46.695312 91.167969 47.847656 90.246094 49.050781 C 91.675781 48.582031 93.121094 48.070312 94.597656 47.492188 C 95.386719 46.339844 96.210938 45.109375 97.066406 43.882812 Z M 97.066406 43.882812 "/>
<path style=" stroke:none;fill-rule:nonzero;fill:rgb(86.27451%,9.803922%,25.490196%);fill-opacity:1;" d="M 93.664062 49.128906 C 92.109375 49.625 90.652344 50.078125 89.175781 50.542969 C 88.273438 51.804688 87.371094 53.113281 86.503906 54.464844 C 88.054688 54.109375 89.71875 53.71875 91.363281 53.332031 C 92.09375 51.882812 92.839844 50.480469 93.664062 49.128906 Z M 93.664062 49.128906 "/>
<path style=" stroke:none;fill-rule:nonzero;fill:rgb(86.27451%,9.803922%,25.490196%);fill-opacity:1;" d="M 149.925781 21.25 L 151.699219 21.125 C 152.085938 20.515625 152.476562 19.878906 152.832031 19.238281 L 151.078125 19.363281 C 150.703125 20.003906 150.316406 20.640625 149.925781 21.25 Z M 149.925781 21.25 "/>
<path style=" stroke:none;fill-rule:nonzero;fill:rgb(86.27451%,9.803922%,25.490196%);fill-opacity:1;" d="M 136.414062 27.644531 C 135.480469 27.769531 134.535156 27.894531 133.601562 28.050781 C 132.933594 28.8125 132.25 29.605469 131.550781 30.277344 L 134.394531 29.902344 C 135.09375 29.171875 135.761719 28.410156 136.414062 27.644531 Z M 136.414062 27.644531 "/>
<path style=" stroke:none;fill-rule:nonzero;fill:rgb(86.27451%,9.803922%,25.490196%);fill-opacity:1;" d="M 90.511719 55.074219 L 85.492188 56.101562 C 84.625 57.554688 83.785156 59.046875 82.976562 60.585938 C 84.746094 60.367188 86.566406 60.117188 88.429688 59.851562 C 89.082031 58.21875 89.734375 56.613281 90.511719 55.074219 Z M 90.511719 55.074219 "/>
<path style=" stroke:none;fill-rule:nonzero;fill:rgb(86.27451%,9.803922%,25.490196%);fill-opacity:1;" d="M 100.609375 39.367188 L 96.988281 41.34375 C 95.953125 42.308594 94.988281 43.320312 94.097656 44.378906 C 95.386719 43.804688 96.675781 43.210938 97.984375 42.589844 C 98.898438 41.484375 99.769531 40.410156 100.609375 39.367188 Z M 100.609375 39.367188 "/>
<path style=" stroke:none;fill-rule:nonzero;fill:rgb(86.27451%,9.803922%,25.490196%);fill-opacity:1;" d="M 105.453125 39.554688 C 106.308594 39.007812 107.148438 38.449219 107.988281 37.886719 L 105.59375 38.527344 L 105.875 38.042969 L 108.980469 37.171875 C 109.820312 36.566406 110.628906 35.957031 111.449219 35.320312 L 108.03125 36.347656 C 107.363281 36.859375 106.679688 37.34375 105.984375 37.902344 L 106.820312 36.457031 L 107.722656 36.113281 C 108.5625 35.492188 109.398438 34.835938 110.222656 34.167969 L 107.441406 35.195312 L 106.867188 36.285156 C 106.371094 36.519531 103.3125 37.917969 102.207031 38.589844 C 101.351562 39.664062 100.515625 40.753906 99.722656 41.890625 C 100.746094 41.390625 103.21875 40.332031 104.382812 39.898438 Z M 105.453125 39.554688 "/>
<path style=" stroke:none;fill-rule:nonzero;fill:rgb(86.27451%,9.803922%,25.490196%);fill-opacity:1;" d="M 140.15625 29.109375 L 142.363281 28.953125 C 142.90625 28.332031 143.464844 27.691406 143.917969 27.039062 L 141.726562 27.226562 C 141.257812 27.863281 140.714844 28.488281 140.15625 29.109375 Z M 140.15625 29.109375 "/>
<path style=" stroke:none;fill-rule:nonzero;fill:rgb(86.27451%,9.803922%,25.490196%);fill-opacity:1;" d="M 123.707031 36.347656 C 124.53125 35.710938 125.261719 35.054688 126.097656 34.402344 C 125.058594 34.527344 124.03125 34.683594 122.992188 34.835938 C 122.183594 35.492188 121.4375 36.128906 120.570312 36.738281 Z M 123.707031 36.347656 "/>
<path style=" stroke:none;fill-rule:nonzero;fill:rgb(86.27451%,9.803922%,25.490196%);fill-opacity:1;" d="M 130.230469 33.949219 C 129.269531 34.042969 128.273438 34.152344 127.308594 34.277344 C 126.550781 34.929688 125.757812 35.554688 124.996094 36.191406 L 127.917969 35.894531 C 128.707031 35.257812 129.46875 34.621094 130.230469 33.949219 Z M 130.230469 33.949219 "/>
<path style=" stroke:none;fill-rule:nonzero;fill:rgb(86.27451%,9.803922%,25.490196%);fill-opacity:1;" d="M 134.160156 33.671875 L 131.503906 33.886719 C 130.804688 34.511719 130.089844 35.117188 129.34375 35.726562 L 132.015625 35.539062 C 132.753906 34.9375 133.46875 34.3125 134.160156 33.671875 Z M 134.160156 33.671875 "/>
<path style=" stroke:none;fill-rule:nonzero;fill:rgb(86.27451%,9.803922%,25.490196%);fill-opacity:1;" d="M 122.710938 34.214844 C 123.503906 33.546875 124.265625 32.84375 125.027344 32.144531 L 121.921875 32.75 C 121.160156 33.453125 120.367188 34.121094 119.574219 34.773438 Z M 122.710938 34.214844 "/>
<path style=" stroke:none;fill-rule:nonzero;fill:rgb(86.27451%,9.803922%,25.490196%);fill-opacity:1;" d="M 137.328125 30.589844 C 136.460938 30.589844 135.589844 30.742188 134.71875 30.835938 C 134.050781 31.523438 133.367188 32.175781 132.683594 32.8125 L 135.308594 32.597656 C 135.992188 31.941406 136.675781 31.273438 137.328125 30.589844 Z M 137.328125 30.589844 "/>
<path style=" stroke:none;fill-rule:nonzero;fill:rgb(86.27451%,9.803922%,25.490196%);fill-opacity:1;" d="M 118.332031 32.984375 L 121.546875 32.222656 C 122.324219 31.507812 123.085938 30.773438 123.832031 30.027344 C 122.757812 30.277344 121.6875 30.542969 120.628906 30.820312 C 119.886719 31.507812 119.109375 32.222656 118.332031 32.984375 Z M 118.332031 32.984375 "/>
<path style=" stroke:none;fill-rule:nonzero;fill:rgb(86.27451%,9.803922%,25.490196%);fill-opacity:1;" d="M 122.789062 31.894531 L 125.898438 31.257812 C 126.65625 30.527344 127.449219 29.699219 128.117188 28.984375 C 127.078125 29.203125 126.035156 29.421875 125.011719 29.667969 C 124.3125 30.433594 123.566406 31.179688 122.789062 31.894531 Z M 122.789062 31.894531 "/>
<path style=" stroke:none;fill-rule:nonzero;fill:rgb(86.27451%,9.803922%,25.490196%);fill-opacity:1;" d="M 127.15625 31.039062 L 130.261719 30.527344 C 131.007812 29.777344 131.816406 28.96875 132.4375 28.191406 L 129.328125 28.75 C 128.644531 29.53125 127.917969 30.292969 127.15625 31.039062 Z M 127.15625 31.039062 "/>
<path style=" stroke:none;fill-rule:nonzero;fill:rgb(0%,0%,0%);fill-opacity:1;" d="M 245.070312 94.128906 C 243.394531 93.617188 242.664062 93.304688 242.664062 92.339844 C 242.664062 91.375 243.796875 91.171875 244.777344 91.171875 C 245.625 91.171875 246.457031 91.402344 247.183594 91.839844 C 247.332031 91.9375 247.511719 91.964844 247.683594 91.917969 C 247.851562 91.871094 247.992188 91.75 248.070312 91.59375 L 248.351562 91.03125 C 248.488281 90.746094 248.394531 90.398438 248.132812 90.222656 C 247.128906 89.613281 245.980469 89.285156 244.808594 89.273438 C 242.386719 89.273438 240.753906 90.519531 240.753906 92.386719 C 240.753906 94.800781 242.789062 95.40625 244.417969 95.90625 C 246.050781 96.402344 246.875 96.746094 246.875 97.773438 C 246.875 98.800781 245.664062 99.15625 244.542969 99.15625 C 243.4375 99.109375 242.386719 98.667969 241.578125 97.914062 C 241.433594 97.78125 241.242188 97.714844 241.050781 97.742188 C 240.859375 97.757812 240.691406 97.871094 240.597656 98.035156 L 240.273438 98.582031 C 240.117188 98.824219 240.15625 99.144531 240.367188 99.34375 C 241.492188 100.410156 242.976562 101.015625 244.527344 101.042969 C 247.058594 101.042969 248.785156 99.71875 248.785156 97.757812 C 248.785156 95.265625 246.734375 94.644531 245.070312 94.128906 "/>
<path style=" stroke:none;fill-rule:nonzero;fill:rgb(0%,0%,0%);fill-opacity:1;" d="M 256.273438 89.664062 C 256.171875 89.441406 255.953125 89.300781 255.710938 89.304688 L 255.042969 89.304688 C 254.804688 89.300781 254.585938 89.441406 254.484375 89.664062 L 249.730469 100.152344 C 249.640625 100.339844 249.640625 100.558594 249.730469 100.746094 C 249.847656 100.917969 250.039062 101.023438 250.246094 101.027344 L 250.945312 101.027344 C 251.1875 101.027344 251.410156 100.878906 251.503906 100.652344 L 252.683594 98.035156 L 258.011719 98.035156 L 259.207031 100.667969 C 259.308594 100.886719 259.527344 101.027344 259.765625 101.027344 L 260.449219 101.027344 C 260.660156 101.023438 260.859375 100.917969 260.980469 100.746094 C 261.070312 100.558594 261.070312 100.339844 260.980469 100.152344 Z M 253.554688 96.167969 L 255.371094 92.136719 L 257.203125 96.167969 Z M 253.554688 96.167969 "/>
<path style=" stroke:none;fill-rule:nonzero;fill:rgb(0%,0%,0%);fill-opacity:1;" d="M 264.164062 89.304688 L 263.542969 89.304688 C 263.199219 89.304688 262.921875 89.582031 262.921875 89.925781 L 262.921875 100.402344 C 262.921875 100.746094 263.199219 101.027344 263.542969 101.027344 L 264.164062 101.027344 C 264.507812 101.027344 264.785156 100.746094 264.785156 100.402344 L 264.785156 89.925781 C 264.785156 89.582031 264.507812 89.304688 264.164062 89.304688 "/>
<path style=" stroke:none;fill-rule:nonzero;fill:rgb(0%,0%,0%);fill-opacity:1;" d="M 277.210938 89.304688 L 276.605469 89.304688 C 276.261719 89.304688 275.984375 89.582031 275.984375 89.925781 L 275.984375 97.554688 L 270.113281 89.554688 C 269.996094 89.398438 269.8125 89.304688 269.617188 89.304688 L 268.886719 89.304688 C 268.542969 89.304688 268.265625 89.582031 268.265625 89.925781 L 268.265625 100.402344 C 268.265625 100.746094 268.542969 101.027344 268.886719 101.027344 L 269.507812 101.027344 C 269.851562 101.027344 270.128906 100.746094 270.128906 100.402344 L 270.128906 92.777344 L 275.984375 100.777344 C 276.101562 100.933594 276.285156 101.027344 276.480469 101.027344 L 277.210938 101.027344 C 277.554688 101.027344 277.832031 100.746094 277.832031 100.402344 L 277.832031 89.925781 C 277.832031 89.582031 277.554688 89.304688 277.210938 89.304688 "/>
<path style=" stroke:none;fill-rule:nonzero;fill:rgb(0%,0%,0%);fill-opacity:1;" d="M 288.007812 89.304688 L 280.242188 89.304688 C 280.078125 89.304688 279.921875 89.371094 279.808594 89.488281 C 279.691406 89.605469 279.628906 89.761719 279.636719 89.925781 L 279.636719 90.582031 C 279.628906 90.746094 279.691406 90.902344 279.808594 91.019531 C 279.921875 91.136719 280.078125 91.203125 280.242188 91.203125 L 283.160156 91.203125 L 283.160156 100.449219 C 283.160156 100.792969 283.4375 101.074219 283.78125 101.074219 L 284.402344 101.074219 C 284.746094 101.074219 285.023438 100.792969 285.023438 100.449219 L 285.023438 91.203125 L 287.945312 91.203125 C 288.109375 91.203125 288.265625 91.136719 288.378906 91.019531 C 288.492188 90.902344 288.554688 90.746094 288.550781 90.582031 L 288.550781 89.972656 C 288.554688 89.808594 288.492188 89.652344 288.378906 89.535156 C 288.265625 89.417969 288.109375 89.351562 287.945312 89.351562 "/>
<path style=" stroke:none;fill-rule:nonzero;fill:rgb(0%,0%,0%);fill-opacity:1;" d="M 292.605469 95.015625 L 289.265625 95.015625 C 288.921875 95.015625 288.644531 95.296875 288.644531 95.640625 L 288.644531 96.152344 C 288.644531 96.316406 288.710938 96.472656 288.828125 96.589844 C 288.945312 96.703125 289.101562 96.765625 289.265625 96.761719 L 292.605469 96.761719 C 292.765625 96.765625 292.925781 96.703125 293.039062 96.585938 C 293.152344 96.472656 293.214844 96.316406 293.210938 96.152344 L 293.210938 95.640625 C 293.214844 95.476562 293.152344 95.316406 293.039062 95.199219 C 292.925781 95.082031 292.769531 95.015625 292.605469 95.015625 "/>
<path style=" stroke:none;fill-rule:nonzero;fill:rgb(0%,0%,0%);fill-opacity:1;" d="M 305.652344 94.644531 L 303.214844 94.644531 C 303.050781 94.644531 302.894531 94.710938 302.78125 94.828125 C 302.667969 94.945312 302.605469 95.101562 302.609375 95.265625 L 302.609375 95.890625 C 302.605469 96.050781 302.667969 96.210938 302.78125 96.328125 C 302.894531 96.445312 303.050781 96.511719 303.214844 96.511719 L 304.472656 96.511719 L 304.472656 98.363281 C 303.738281 98.871094 302.863281 99.140625 301.972656 99.140625 C 300.472656 99.234375 299.046875 98.488281 298.265625 97.199219 C 297.488281 95.910156 297.488281 94.296875 298.265625 93.007812 C 299.046875 91.71875 300.472656 90.96875 301.972656 91.0625 C 303.039062 91.066406 304.070312 91.453125 304.878906 92.152344 C 305 92.265625 305.164062 92.324219 305.328125 92.308594 C 305.453125 92.285156 305.566406 92.226562 305.652344 92.136719 L 306.027344 91.6875 C 306.128906 91.5625 306.179688 91.402344 306.164062 91.242188 C 306.152344 91.082031 306.074219 90.933594 305.949219 90.828125 C 304.820312 89.832031 303.367188 89.277344 301.863281 89.273438 C 299.695312 89.160156 297.644531 90.257812 296.527344 92.121094 C 295.410156 93.984375 295.410156 96.3125 296.527344 98.179688 C 297.644531 100.042969 299.695312 101.136719 301.863281 101.027344 C 303.375 101.007812 304.832031 100.457031 305.980469 99.46875 C 306.117188 99.347656 306.199219 99.171875 306.199219 98.988281 L 306.199219 95.25 C 306.199219 94.90625 305.917969 94.628906 305.578125 94.628906 "/>
<path style=" stroke:none;fill-rule:nonzero;fill:rgb(0%,0%,0%);fill-opacity:1;" d="M 314.367188 89.289062 C 311.144531 89.375 308.59375 92.046875 308.652344 95.277344 C 308.710938 98.507812 311.359375 101.089844 314.585938 101.054688 C 317.808594 101.019531 320.402344 98.386719 320.394531 95.15625 C 320.34375 91.871094 317.648438 89.246094 314.367188 89.289062 M 314.367188 99.1875 C 312.164062 99.121094 310.425781 97.285156 310.46875 95.078125 C 310.515625 92.867188 312.328125 91.105469 314.53125 91.128906 C 316.738281 91.148438 318.515625 92.945312 318.515625 95.15625 C 318.472656 97.414062 316.621094 99.214844 314.367188 99.1875 "/>
<path style=" stroke:none;fill-rule:nonzero;fill:rgb(0%,0%,0%);fill-opacity:1;" d="M 330.304688 94.832031 C 330.960938 94.242188 331.316406 93.390625 331.285156 92.511719 C 331.285156 90.535156 329.730469 89.304688 327.402344 89.304688 L 323.113281 89.304688 C 322.949219 89.304688 322.792969 89.371094 322.679688 89.488281 C 322.566406 89.605469 322.503906 89.761719 322.507812 89.925781 L 322.507812 100.402344 C 322.503906 100.566406 322.566406 100.726562 322.679688 100.84375 C 322.792969 100.960938 322.949219 101.027344 323.113281 101.027344 L 327.402344 101.027344 C 330.136719 101.027344 331.765625 99.734375 331.765625 97.585938 C 331.789062 96.453125 331.191406 95.398438 330.210938 94.832031 M 327.292969 94.050781 L 324.277344 94.050781 L 324.277344 91.15625 L 327.402344 91.15625 C 328.316406 91.15625 329.421875 91.40625 329.421875 92.589844 C 329.421875 93.773438 328.753906 94.050781 327.402344 94.050781 M 324.386719 95.90625 L 327.402344 95.90625 C 328.347656 95.90625 329.949219 96.121094 329.949219 97.460938 C 329.949219 98.800781 328.566406 99.125 327.402344 99.125 L 324.386719 99.125 Z M 324.386719 95.90625 "/>
<path style=" stroke:none;fill-rule:nonzero;fill:rgb(0%,0%,0%);fill-opacity:1;" d="M 339.394531 89.664062 C 339.289062 89.449219 339.074219 89.308594 338.835938 89.304688 L 338.152344 89.304688 C 337.910156 89.304688 337.691406 89.445312 337.589844 89.664062 L 332.855469 100.152344 C 332.753906 100.339844 332.753906 100.5625 332.855469 100.746094 C 332.972656 100.917969 333.171875 101.023438 333.382812 101.027344 L 334.066406 101.027344 C 334.3125 101.027344 334.539062 100.878906 334.640625 100.652344 L 335.820312 98.035156 L 341.132812 98.035156 L 342.328125 100.667969 C 342.433594 100.882812 342.648438 101.019531 342.886719 101.027344 L 343.585938 101.027344 C 343.792969 101.023438 343.988281 100.917969 344.101562 100.746094 C 344.207031 100.5625 344.207031 100.335938 344.101562 100.152344 Z M 336.722656 96.167969 L 338.539062 92.136719 L 340.371094 96.167969 Z M 336.722656 96.167969 "/>
<path style=" stroke:none;fill-rule:nonzero;fill:rgb(0%,0%,0%);fill-opacity:1;" d="M 347.285156 89.304688 L 346.648438 89.304688 C 346.304688 89.304688 346.027344 89.582031 346.027344 89.925781 L 346.027344 100.402344 C 346.027344 100.746094 346.304688 101.027344 346.648438 101.027344 L 347.285156 101.027344 C 347.628906 101.027344 347.90625 100.746094 347.90625 100.402344 L 347.90625 89.925781 C 347.90625 89.582031 347.628906 89.304688 347.285156 89.304688 "/>
<path style=" stroke:none;fill-rule:nonzero;fill:rgb(0%,0%,0%);fill-opacity:1;" d="M 360.332031 89.304688 L 359.710938 89.304688 C 359.367188 89.304688 359.089844 89.582031 359.089844 89.925781 L 359.089844 97.554688 L 353.21875 89.554688 C 353.101562 89.394531 352.917969 89.300781 352.722656 89.304688 L 351.992188 89.304688 C 351.648438 89.304688 351.371094 89.582031 351.371094 89.925781 L 351.371094 100.402344 C 351.371094 100.746094 351.648438 101.027344 351.992188 101.027344 L 352.628906 101.027344 C 352.792969 101.027344 352.949219 100.960938 353.0625 100.84375 C 353.175781 100.726562 353.238281 100.566406 353.234375 100.402344 L 353.234375 92.777344 L 359.089844 100.777344 C 359.210938 100.929688 359.394531 101.019531 359.585938 101.027344 L 360.332031 101.027344 C 360.496094 101.027344 360.652344 100.960938 360.765625 100.84375 C 360.882812 100.726562 360.941406 100.566406 360.9375 100.402344 L 360.9375 89.925781 C 360.941406 89.761719 360.882812 89.605469 360.765625 89.488281 C 360.652344 89.371094 360.496094 89.304688 360.332031 89.304688 "/>
</g>
</svg>
